<svg xmlns="http://www.w3.org/2000/svg" xmlns:svg="http://www.w3.org/2000/svg" id="Ebene_1" width="189.567" height="143.504" x="0" y="0" enable-background="new 0 0 195.09 151.734" gorn="0" version="1.1" viewBox="0 0 151.654 114.803" xml:space="preserve"><metadata id="metadata6406"/><g id="copper1"><g id="copper0"><circle style="fill:none;stroke:#f7bd13;stroke-width:3.59016514;stroke-miterlimit:4;stroke-opacity:1;stroke-dasharray:none" id="circle4556" cx="384.005" cy="28.212" r="7.667" transform="matrix(0,-0.27932651,0.27775385,0,-0.63598257,114.06577)"/><circle style="fill:none;stroke:#f7bd13;stroke-width:3.59016514;stroke-miterlimit:4;stroke-opacity:1;stroke-dasharray:none" id="circle4558" cx="384.005" cy="54.879" r="7.667" transform="matrix(0,-0.27932651,0.27775385,0,-0.84283595,114.06577)"/><circle style="fill:none;stroke:#f7bd13;stroke-width:3.59016514;stroke-miterlimit:4;stroke-opacity:1;stroke-dasharray:none" id="circle4560" cx="384.005" cy="79.879" r="7.667" transform="matrix(0,-0.27932651,0.27775385,0,-0.58667212,114.06577)"/><circle style="fill:none;stroke:#f7bd13;stroke-width:3.59016514;stroke-miterlimit:4;stroke-opacity:1;stroke-dasharray:none" id="circle4562" cx="384.005" cy="106.546" r="7.667" transform="matrix(0,-0.27932651,0.27775385,0,-0.79352497,114.06577)"/><circle style="fill:none;stroke:#f7bd13;stroke-width:3.59016514;stroke-miterlimit:4;stroke-opacity:1;stroke-dasharray:none" id="circle4564" cx="384.005" cy="131.879" r="7.667" transform="matrix(0,-0.27932651,0.27775385,0,-0.62985428,114.06577)"/><circle style="fill:none;stroke:#f7bd13;stroke-width:3.59016156;stroke-miterlimit:4;stroke-opacity:1;stroke-dasharray:none" id="circle4566" cx="384.005" cy="158.213" r="7.667" transform="matrix(0,-0.27932705,0.27775385,0,-0.74421513,114.06598)"/><circle style="fill:none;stroke:#f7bd13;stroke-width:3.59016514;stroke-miterlimit:4;stroke-opacity:1;stroke-dasharray:none" id="circle4568" cx="384.005" cy="183.546" r="7.667" transform="matrix(0,-0.27932651,0.27775385,0,-0.58054648,114.06577)"/><circle style="fill:none;stroke:#f7bd13;stroke-width:3.59016514;stroke-miterlimit:4;stroke-opacity:1;stroke-dasharray:none" id="circle4570" cx="384.005" cy="210.213" r="7.667" transform="matrix(0,-0.27932651,0.27775385,0,-0.78739721,114.06577)"/><circle style="fill:none;stroke:#f7bd13;stroke-width:3.59016514;stroke-miterlimit:4;stroke-opacity:1;stroke-dasharray:none" id="circle4572" cx="384.005" cy="235.213" r="7.667" transform="matrix(0,-0.27932651,0.27775385,0,-0.78739721,114.06577)"/><circle style="fill:none;stroke:#f7bd13;stroke-width:3.59016514;stroke-miterlimit:4;stroke-opacity:1;stroke-dasharray:none" id="circle4574" cx="358.671" cy="183.546" r="7.667" transform="matrix(0,-0.27932651,0.27775385,0,-0.53123444,114.18932)"/><circle style="fill:none;stroke:#f7bd13;stroke-width:3.59016514;stroke-miterlimit:4;stroke-opacity:1;stroke-dasharray:none" id="circle4576" cx="358.671" cy="210.213" r="7.667" transform="matrix(0,-0.27932651,0.27775385,0,-0.53123444,114.18932)"/><circle style="fill:none;stroke:#f7bd13;stroke-width:3.59016514;stroke-miterlimit:4;stroke-opacity:1;stroke-dasharray:none" id="circle4578" cx="358.671" cy="235.213" r="7.667" transform="matrix(0,-0.27932651,0.27775385,0,-0.53123444,114.18932)"/><circle style="fill:none;stroke:#f7bd13;stroke-width:3.59016514;stroke-miterlimit:4;stroke-opacity:1;stroke-dasharray:none" id="circle4580" cx="333.671" cy="235.213" r="7.667" transform="matrix(0,-0.27932651,0.27775385,0,-0.53123444,114.40617)"/><circle style="fill:none;stroke:#f7bd13;stroke-width:3.59016514;stroke-miterlimit:4;stroke-opacity:1;stroke-dasharray:none" id="circle4582" cx="308.337" cy="235.213" r="7.667" transform="matrix(0,-0.27932651,0.27775385,0,-0.53123444,115.02364)"/><circle style="fill:none;stroke:#f7bd13;stroke-width:3.59016514;stroke-miterlimit:4;stroke-opacity:1;stroke-dasharray:none" id="circle4584" cx="282.338" cy="235.213" r="7.667" transform="matrix(0,-0.27932651,0.27775385,0,-0.53123444,115.02364)"/><circle style="fill:none;stroke:#f7bd13;stroke-width:3.59016514;stroke-miterlimit:4;stroke-opacity:1;stroke-dasharray:none" id="circle4586" cx="257.004" cy="235.213" r="7.667" transform="matrix(0,-0.27932651,0.27775385,0,-0.53123444,115.02364)"/><circle style="fill:none;stroke:#f7bd13;stroke-width:3.59016514;stroke-miterlimit:4;stroke-opacity:1;stroke-dasharray:none" id="circle4588" cx="231.005" cy="235.213" r="7.667" transform="matrix(0,-0.27932651,0.27775385,0,-0.53123444,115.02364)"/><circle style="fill:none;stroke:#f7bd13;stroke-width:3.59016514;stroke-miterlimit:4;stroke-opacity:1;stroke-dasharray:none" id="circle4590" cx="205.671" cy="235.213" r="7.667" transform="matrix(0,-0.27932651,0.27775385,0,-0.53123444,115.02364)"/><circle style="fill:none;stroke:#f7bd13;stroke-width:3.59016514;stroke-miterlimit:4;stroke-opacity:1;stroke-dasharray:none" id="circle4592" cx="180.338" cy="235.213" r="7.667" transform="matrix(0,-0.27932651,0.27775385,0,-0.53123444,115.02364)"/><circle style="fill:none;stroke:#f7bd13;stroke-width:3.59016514;stroke-miterlimit:4;stroke-opacity:1;stroke-dasharray:none" id="circle4594" cx="155.004" cy="235.213" r="7.667" transform="matrix(0,-0.27932651,0.27775385,0,-0.53123444,115.02364)"/><circle style="fill:none;stroke:#f7bd13;stroke-width:3.59016514;stroke-miterlimit:4;stroke-opacity:1;stroke-dasharray:none" id="circle4596" cx="129.671" cy="235.213" r="7.667" transform="matrix(0,-0.27932651,0.27775385,0,-0.53123444,115.02364)"/><circle style="fill:none;stroke:#f7bd13;stroke-width:3.59016514;stroke-miterlimit:4;stroke-opacity:1;stroke-dasharray:none" id="circle4598" cx="384.005" cy="262.213" r="7.667" transform="matrix(0,-0.27932651,0.27775385,0,-0.78739721,114.06577)"/><circle style="fill:none;stroke:#f7bd13;stroke-width:3.59016514;stroke-miterlimit:4;stroke-opacity:1;stroke-dasharray:none" id="circle4600" cx="384.005" cy="287.489" r="7.667" transform="matrix(0,-0.27932651,0.27775385,0,-0.78739721,114.06577)"/><circle style="fill:none;stroke:#f7bd13;stroke-width:3.59016514;stroke-miterlimit:4;stroke-opacity:1;stroke-dasharray:none" id="circle4602" cx="384.005" cy="314.156" r="7.667" transform="matrix(0,-0.27932651,0.27775385,0,-0.78739721,114.06577)"/><circle style="fill:none;stroke:#f7bd13;stroke-width:3.59016514;stroke-miterlimit:4;stroke-opacity:1;stroke-dasharray:none" id="circle4604" cx="384.005" cy="340.156" r="7.667" transform="matrix(0,-0.27932651,0.27775385,0,-0.78739721,114.06577)"/><circle style="fill:none;stroke:#f7bd13;stroke-width:3.59016514;stroke-miterlimit:4;stroke-opacity:1;stroke-dasharray:none" id="circle4606" cx="384.005" cy="366.489" r="7.667" transform="matrix(0,-0.27932651,0.27775385,0,-0.78739721,114.06577)"/><circle style="fill:none;stroke:#f7bd13;stroke-width:3.59016514;stroke-miterlimit:4;stroke-opacity:1;stroke-dasharray:none" id="circle4608" cx="384.005" cy="392.457" r="7.667" transform="matrix(0,-0.27932651,0.27775385,0,-0.78739721,114.06577)"/><circle style="fill:none;stroke:#f7bd13;stroke-width:3.59016514;stroke-miterlimit:4;stroke-opacity:1;stroke-dasharray:none" id="circle4610" cx="384.005" cy="418.457" r="7.667" transform="matrix(0,-0.27932651,0.27775385,0,-0.78739721,114.06577)"/><circle style="fill:none;stroke:#f7bd13;stroke-width:3.59016514;stroke-miterlimit:4;stroke-opacity:1;stroke-dasharray:none" id="circle4612" cx="384.005" cy="444.79" r="7.667" transform="matrix(0,-0.27932651,0.27775385,0,-0.78739721,114.06577)"/><circle style="fill:none;stroke:#f7bd13;stroke-width:3.59016514;stroke-miterlimit:4;stroke-opacity:1;stroke-dasharray:none" id="circle4614" cx="384.005" cy="469.124" r="7.667" transform="matrix(0,-0.27932651,0.27775385,0,-0.78739721,114.06577)"/><circle style="fill:none;stroke:#f7bd13;stroke-width:3.59016514;stroke-miterlimit:4;stroke-opacity:1;stroke-dasharray:none" id="circle4616" cx="384.005" cy="495.124" r="7.667" transform="matrix(0,-0.27932651,0.27775385,0,-0.78739721,114.06577)"/><circle style="fill:none;stroke:#f7bd13;stroke-width:3.59016514;stroke-miterlimit:4;stroke-opacity:1;stroke-dasharray:none" id="circle4618" cx="384.005" cy="521.457" r="7.667" transform="matrix(0,-0.27932651,0.27775385,0,-0.83650071,114.06577)"/><circle style="fill:none;stroke:#f7bd13;stroke-width:3.59016514;stroke-miterlimit:4;stroke-opacity:1;stroke-dasharray:none" id="circle4620" cx="27.608" cy="28.212" r="7.667" transform="matrix(0,-0.27932651,0.27775385,0,-0.63598257,115.31477)"/><circle style="fill:none;stroke:#f7bd13;stroke-width:3.59016514;stroke-miterlimit:4;stroke-opacity:1;stroke-dasharray:none" id="circle4622" cx="27.608" cy="54.879" r="7.667" transform="matrix(0,-0.27932651,0.27775385,0,-0.84283595,115.31477)"/><circle style="fill:none;stroke:#f7bd13;stroke-width:3.59016514;stroke-miterlimit:4;stroke-opacity:1;stroke-dasharray:none" id="circle4624" cx="27.608" cy="79.879" r="7.667" transform="matrix(0,-0.27932651,0.27775385,0,-0.58667212,115.31477)"/><circle style="fill:none;stroke:#f7bd13;stroke-width:3.59016514;stroke-miterlimit:4;stroke-opacity:1;stroke-dasharray:none" id="circle4626" cx="27.608" cy="106.546" r="7.667" transform="matrix(0,-0.27932651,0.27775385,0,-0.79352497,115.31477)"/><circle style="fill:none;stroke:#f7bd13;stroke-width:3.59016514;stroke-miterlimit:4;stroke-opacity:1;stroke-dasharray:none" id="circle4628" cx="27.608" cy="131.879" r="7.667" transform="matrix(0,-0.27932651,0.27775385,0,-0.62985428,115.31477)"/><circle style="fill:none;stroke:#f7bd13;stroke-width:3.59016514;stroke-miterlimit:4;stroke-opacity:1;stroke-dasharray:none" id="circle4630" cx="27.608" cy="158.213" r="7.667" transform="matrix(0,-0.27932651,0.27775385,0,-0.74421505,115.31477)"/><circle style="fill:none;stroke:#f7bd13;stroke-width:3.59016514;stroke-miterlimit:4;stroke-opacity:1;stroke-dasharray:none" id="circle4632" cx="27.608" cy="183.546" r="7.667" transform="matrix(0,-0.27932651,0.27775385,0,-0.58054648,115.31477)"/><circle style="fill:none;stroke:#f7bd13;stroke-width:3.59016514;stroke-miterlimit:4;stroke-opacity:1;stroke-dasharray:none" id="circle4634" cx="27.608" cy="210.213" r="7.667" transform="matrix(0,-0.27932651,0.27775385,0,-0.78739721,115.31477)"/><circle style="fill:none;stroke:#f7bd13;stroke-width:3.59016514;stroke-miterlimit:4;stroke-opacity:1;stroke-dasharray:none" id="circle4636" cx="27.608" cy="235.213" r="7.667" transform="matrix(0,-0.27932651,0.27775385,0,-0.53123444,115.31477)"/><circle style="fill:none;stroke:#f7bd13;stroke-width:3.59016514;stroke-miterlimit:4;stroke-opacity:1;stroke-dasharray:none" id="circle4638" cx="27.608" cy="262.213" r="7.667" transform="matrix(0,-0.27932651,0.27775385,0,-0.83058361,115.31477)"/><circle style="fill:none;stroke:#f7bd13;stroke-width:3.59016514;stroke-miterlimit:4;stroke-opacity:1;stroke-dasharray:none" id="circle4640" cx="27.608" cy="287.489" r="7.667" transform="matrix(0,-0.27932651,0.27775385,0,-0.65108117,115.31477)"/><circle style="fill:none;stroke:#f7bd13;stroke-width:3.59016514;stroke-miterlimit:4;stroke-opacity:1;stroke-dasharray:none" id="circle4642" cx="27.608" cy="314.156" r="7.667" transform="matrix(0,-0.27932651,0.27775385,0,-0.8579319,115.31477)"/><circle style="fill:none;stroke:#f7bd13;stroke-width:3.59016514;stroke-miterlimit:4;stroke-opacity:1;stroke-dasharray:none" id="circle4644" cx="27.608" cy="340.156" r="7.667" transform="matrix(0,-0.27932651,0.27775385,0,-0.87952298,115.31477)"/><circle style="fill:none;stroke:#f7bd13;stroke-width:3.59016514;stroke-miterlimit:4;stroke-opacity:1;stroke-dasharray:none" id="circle4646" cx="27.608" cy="366.489" r="7.667" transform="matrix(0,-0.27932651,0.27775385,0,-0.99360827,115.31477)"/><circle style="fill:none;stroke:#f7bd13;stroke-width:3.59016514;stroke-miterlimit:4;stroke-opacity:1;stroke-dasharray:none" id="circle4648" cx="27.608" cy="392.457" r="7.667" transform="matrix(0,-0.27932651,0.27775385,0,-1.0063076,115.31477)"/><circle style="fill:none;stroke:#f7bd13;stroke-width:3.59016514;stroke-miterlimit:4;stroke-opacity:1;stroke-dasharray:none" id="circle4650" cx="27.608" cy="418.457" r="7.667" transform="matrix(0,-0.27932651,0.27775385,0,-1.0278987,115.31477)"/><circle style="fill:none;stroke:#f7bd13;stroke-width:3.59016514;stroke-miterlimit:4;stroke-opacity:1;stroke-dasharray:none" id="circle4652" cx="27.608" cy="444.79" r="7.667" transform="matrix(0,-0.27932651,0.27775385,0,-1.141984,115.31477)"/><circle style="fill:none;stroke:#f7bd13;stroke-width:3.59016514;stroke-miterlimit:4;stroke-opacity:1;stroke-dasharray:none" id="circle4654" cx="27.608" cy="469.124" r="7.667" transform="matrix(0,-0.27932651,0.27775385,0,-0.70083282,115.31477)"/><circle style="fill:none;stroke:#f7bd13;stroke-width:3.59016514;stroke-miterlimit:4;stroke-opacity:1;stroke-dasharray:none" id="circle4656" cx="27.608" cy="495.124" r="7.667" transform="matrix(0,-0.27932651,0.27775385,0,-0.72242391,115.31477)"/><circle style="fill:none;stroke:#f7bd13;stroke-width:3.59016514;stroke-miterlimit:4;stroke-opacity:1;stroke-dasharray:none" id="circle4658" cx="27.608" cy="521.457" r="7.667" transform="matrix(0,-0.27932651,0.27775385,0,-0.83650071,115.31477)"/><circle style="fill:none;stroke:#f7bd13;stroke-width:3.59016514;stroke-miterlimit:4;stroke-opacity:1;stroke-dasharray:none" id="circle4660" cx="52.608" cy="444.79" r="7.667" transform="matrix(0,-0.27932651,0.27775385,0,-1.141984,115.09792)"/><circle style="fill:none;stroke:#f7bd13;stroke-width:3.59016514;stroke-miterlimit:4;stroke-opacity:1;stroke-dasharray:none" id="circle4662" cx="52.608" cy="469.124" r="7.667" transform="matrix(0,-0.27932651,0.27775385,0,-0.70083282,115.09792)"/><circle style="fill:none;stroke:#f7bd13;stroke-width:3.59016514;stroke-miterlimit:4;stroke-opacity:1;stroke-dasharray:none" id="circle4664" cx="52.608" cy="495.124" r="7.667" transform="matrix(0,-0.27932651,0.27775385,0,-0.72242391,115.09792)"/><circle style="fill:none;stroke:#f7bd13;stroke-width:3.59016514;stroke-miterlimit:4;stroke-opacity:1;stroke-dasharray:none" id="circle4666" cx="52.608" cy="521.457" r="7.667" transform="matrix(0,-0.27932651,0.27775385,0,-0.83650071,115.09792)"/><circle style="fill:none;stroke:#f7bd13;stroke-width:3.59016514;stroke-miterlimit:4;stroke-opacity:1;stroke-dasharray:none" id="circle4668" cx="78.941" cy="444.79" r="7.667" transform="matrix(0,-0.27932651,0.27775385,0,-1.141984,115.09792)"/><circle style="fill:none;stroke:#f7bd13;stroke-width:3.59016514;stroke-miterlimit:4;stroke-opacity:1;stroke-dasharray:none" id="circle4670" cx="78.941" cy="469.124" r="7.667" transform="matrix(0,-0.27932651,0.27775385,0,-0.70083282,115.09792)"/><circle style="fill:none;stroke:#f7bd13;stroke-width:3.59016514;stroke-miterlimit:4;stroke-opacity:1;stroke-dasharray:none" id="circle4672" cx="78.941" cy="495.124" r="7.667" transform="matrix(0,-0.27932651,0.27775385,0,-0.72242391,115.09792)"/><circle style="fill:none;stroke:#f7bd13;stroke-width:3.59016514;stroke-miterlimit:4;stroke-opacity:1;stroke-dasharray:none" id="circle4674" cx="78.941" cy="521.457" r="7.667" transform="matrix(0,-0.27932651,0.27775385,0,-0.83650071,115.09792)"/><circle style="fill:none;stroke:#f7bd13;stroke-width:3.59016514;stroke-miterlimit:4;stroke-opacity:1;stroke-dasharray:none" id="circle4676" cx="104.607" cy="444.79" r="7.667" transform="matrix(0,-0.27932651,0.27775385,0,-1.141984,115.09792)"/><circle style="fill:none;stroke:#f7bd13;stroke-width:3.59016514;stroke-miterlimit:4;stroke-opacity:1;stroke-dasharray:none" id="circle4678" cx="104.607" cy="469.124" r="7.667" transform="matrix(0,-0.27932651,0.27775385,0,-0.70083282,115.09792)"/><circle style="fill:none;stroke:#f7bd13;stroke-width:3.59016514;stroke-miterlimit:4;stroke-opacity:1;stroke-dasharray:none" id="circle4680" cx="104.607" cy="495.124" r="7.667" transform="matrix(0,-0.27932651,0.27775385,0,-0.72242391,115.09792)"/><circle style="fill:none;stroke:#f7bd13;stroke-width:3.59016514;stroke-miterlimit:4;stroke-opacity:1;stroke-dasharray:none" id="circle4682" cx="104.607" cy="521.457" r="7.667" transform="matrix(0,-0.27932651,0.27775385,0,-0.83650071,115.09792)"/><circle style="fill:none;stroke:#f7bd13;stroke-width:3.59016514;stroke-miterlimit:4;stroke-opacity:1;stroke-dasharray:none" id="circle4684" cx="358.671" cy="287.489" r="7.667" transform="matrix(0,-0.27932651,0.27775385,0,-0.53123444,114.18932)"/><circle style="fill:none;stroke:#f7bd13;stroke-width:3.59016514;stroke-miterlimit:4;stroke-opacity:1;stroke-dasharray:none" id="circle4686" cx="358.671" cy="314.156" r="7.667" transform="matrix(0,-0.27932651,0.27775385,0,-0.53123444,114.18932)"/><circle style="fill:none;stroke:#f7bd13;stroke-width:3.59016514;stroke-miterlimit:4;stroke-opacity:1;stroke-dasharray:none" id="circle4688" cx="358.671" cy="340.156" r="7.667" transform="matrix(0,-0.27932651,0.27775385,0,-0.53123444,114.18932)"/><circle style="fill:none;stroke:#f7bd13;stroke-width:3.59016514;stroke-miterlimit:4;stroke-opacity:1;stroke-dasharray:none" id="circle4690" cx="358.671" cy="366.489" r="7.667" transform="matrix(0,-0.27932651,0.27775385,0,-0.53123444,114.18932)"/><circle style="fill:none;stroke:#f7bd13;stroke-width:3.59016514;stroke-miterlimit:4;stroke-opacity:1;stroke-dasharray:none" id="circle4692" cx="358.671" cy="392.457" r="7.667" transform="matrix(0,-0.27932651,0.27775385,0,-0.53123444,114.18932)"/><circle style="fill:none;stroke:#f7bd13;stroke-width:3.59016514;stroke-miterlimit:4;stroke-opacity:1;stroke-dasharray:none" id="circle4694" cx="358.671" cy="418.457" r="7.667" transform="matrix(0,-0.27932651,0.27775385,0,-0.53123444,114.18932)"/><circle style="fill:none;stroke:#f7bd13;stroke-width:3.59016514;stroke-miterlimit:4;stroke-opacity:1;stroke-dasharray:none" id="circle4696" cx="358.671" cy="444.79" r="7.667" transform="matrix(0,-0.27932651,0.27775385,0,-0.53123444,114.18932)"/><circle style="fill:none;stroke:#f7bd13;stroke-width:3.59016514;stroke-miterlimit:4;stroke-opacity:1;stroke-dasharray:none" id="circle4698" cx="358.671" cy="469.124" r="7.667" transform="matrix(0,-0.27932651,0.27775385,0,-0.53123444,114.18932)"/><circle style="fill:none;stroke:#f7bd13;stroke-width:3.59016514;stroke-miterlimit:4;stroke-opacity:1;stroke-dasharray:none" id="circle4700" cx="358.671" cy="495.124" r="7.667" transform="matrix(0,-0.27932651,0.27775385,0,-0.53123444,114.18932)"/><circle style="fill:none;stroke:#f7bd13;stroke-width:3.59016514;stroke-miterlimit:4;stroke-opacity:1;stroke-dasharray:none" id="circle4702" cx="358.671" cy="521.457" r="7.667" transform="matrix(0,-0.27932651,0.27775385,0,-0.53123444,114.18932)"/><circle style="fill:none;stroke:#f7bd13;stroke-width:3.59016514;stroke-miterlimit:4;stroke-opacity:1;stroke-dasharray:none" id="circle4704" cx="333.671" cy="287.489" r="7.667" transform="matrix(0,-0.27932651,0.27775385,0,-0.53123444,114.40617)"/><circle style="fill:none;stroke:#f7bd13;stroke-width:3.59016514;stroke-miterlimit:4;stroke-opacity:1;stroke-dasharray:none" id="circle4706" cx="333.671" cy="314.156" r="7.667" transform="matrix(0,-0.27932651,0.27775385,0,-0.53123444,114.40617)"/><circle style="fill:none;stroke:#f7bd13;stroke-width:3.59016514;stroke-miterlimit:4;stroke-opacity:1;stroke-dasharray:none" id="circle4708" cx="333.671" cy="340.156" r="7.667" transform="matrix(0,-0.27932651,0.27775385,0,-0.53123444,114.40617)"/><circle style="fill:none;stroke:#f7bd13;stroke-width:3.59016514;stroke-miterlimit:4;stroke-opacity:1;stroke-dasharray:none" id="circle4710" cx="333.671" cy="366.489" r="7.667" transform="matrix(0,-0.27932651,0.27775385,0,-0.53123444,114.40617)"/><circle style="fill:none;stroke:#f7bd13;stroke-width:3.59016514;stroke-miterlimit:4;stroke-opacity:1;stroke-dasharray:none" id="circle4712" cx="333.671" cy="392.457" r="7.667" transform="matrix(0,-0.27932651,0.27775385,0,-0.53123444,114.40617)"/><circle style="fill:none;stroke:#f7bd13;stroke-width:3.59016514;stroke-miterlimit:4;stroke-opacity:1;stroke-dasharray:none" id="circle4714" cx="333.671" cy="418.457" r="7.667" transform="matrix(0,-0.27932651,0.27775385,0,-0.53123444,114.40617)"/><circle style="fill:none;stroke:#f7bd13;stroke-width:3.59016514;stroke-miterlimit:4;stroke-opacity:1;stroke-dasharray:none" id="circle4716" cx="333.671" cy="444.79" r="7.667" transform="matrix(0,-0.27932651,0.27775385,0,-0.53123444,114.40617)"/><circle style="fill:none;stroke:#f7bd13;stroke-width:3.59016514;stroke-miterlimit:4;stroke-opacity:1;stroke-dasharray:none" id="circle4718" cx="333.671" cy="469.124" r="7.667" transform="matrix(0,-0.27932651,0.27775385,0,-0.53123444,114.40617)"/><circle style="fill:none;stroke:#f7bd13;stroke-width:3.59016514;stroke-miterlimit:4;stroke-opacity:1;stroke-dasharray:none" id="circle4720" cx="333.671" cy="495.124" r="7.667" transform="matrix(0,-0.27932651,0.27775385,0,-0.53123444,114.40617)"/><circle style="fill:none;stroke:#f7bd13;stroke-width:3.59016514;stroke-miterlimit:4;stroke-opacity:1;stroke-dasharray:none" id="circle4722" cx="333.671" cy="521.457" r="7.667" transform="matrix(0,-0.27932651,0.27775385,0,-0.53123444,114.40617)"/><circle style="fill:none;stroke:#f7bd13;stroke-width:3.59016514;stroke-miterlimit:4;stroke-opacity:1;stroke-dasharray:none" id="circle4724" cx="309.339" cy="495.124" r="7.667" transform="matrix(0,-0.27932651,0.27775385,0,-0.72242391,115.09792)"/><circle style="fill:none;stroke:#f7bd13;stroke-width:3.59016514;stroke-miterlimit:4;stroke-opacity:1;stroke-dasharray:none" id="circle4726" cx="309.339" cy="521.457" r="7.667" transform="matrix(0,-0.27932651,0.27775385,0,-0.83650071,115.09792)"/><circle style="fill:none;stroke:#f7bd13;stroke-width:3.59016514;stroke-miterlimit:4;stroke-opacity:1;stroke-dasharray:none" id="circle4728" cx="284.005" cy="495.124" r="7.667" transform="matrix(0,-0.27932651,0.27775385,0,-0.72242391,115.09792)"/><circle style="fill:none;stroke:#f7bd13;stroke-width:3.59016514;stroke-miterlimit:4;stroke-opacity:1;stroke-dasharray:none" id="circle4730" cx="284.005" cy="521.457" r="7.667" transform="matrix(0,-0.27932651,0.27775385,0,-0.83650071,115.09792)"/><circle style="fill:none;stroke:#f7bd13;stroke-width:3.59016514;stroke-miterlimit:4;stroke-opacity:1;stroke-dasharray:none" id="circle4732" cx="259.005" cy="495.124" r="7.667" transform="matrix(0,-0.27932651,0.27775385,0,-0.72242391,115.09792)"/><circle style="fill:none;stroke:#f7bd13;stroke-width:3.59016514;stroke-miterlimit:4;stroke-opacity:1;stroke-dasharray:none" id="circle4734" cx="259.005" cy="521.457" r="7.667" transform="matrix(0,-0.27932651,0.27775385,0,-0.83650071,115.09792)"/><circle style="fill:none;stroke:#f7bd13;stroke-width:3.59016514;stroke-miterlimit:4;stroke-opacity:1;stroke-dasharray:none" id="circle4736" cx="231.672" cy="495.124" r="7.667" transform="matrix(0,-0.27932651,0.27775385,0,-0.72242391,115.09792)"/><circle style="fill:none;stroke:#f7bd13;stroke-width:3.59016514;stroke-miterlimit:4;stroke-opacity:1;stroke-dasharray:none" id="circle4738" cx="231.672" cy="521.457" r="7.667" transform="matrix(0,-0.27932651,0.27775385,0,-0.83650071,115.09792)"/><circle style="fill:none;stroke:#f7bd13;stroke-width:3.59016514;stroke-miterlimit:4;stroke-opacity:1;stroke-dasharray:none" id="circle4740" cx="206.338" cy="495.124" r="7.667" transform="matrix(0,-0.27932651,0.27775385,0,-0.72242391,115.09792)"/><circle style="fill:none;stroke:#f7bd13;stroke-width:3.59016514;stroke-miterlimit:4;stroke-opacity:1;stroke-dasharray:none" id="circle4742" cx="206.338" cy="521.457" r="7.667" transform="matrix(0,-0.27932651,0.27775385,0,-0.83650071,115.09792)"/><circle style="fill:none;stroke:#f7bd13;stroke-width:3.59016514;stroke-miterlimit:4;stroke-opacity:1;stroke-dasharray:none" id="circle4744" cx="181.338" cy="495.124" r="7.667" transform="matrix(0,-0.27932651,0.27775385,0,-0.72242391,115.09792)"/><circle style="fill:none;stroke:#f7bd13;stroke-width:3.59016514;stroke-miterlimit:4;stroke-opacity:1;stroke-dasharray:none" id="circle4746" cx="181.338" cy="521.457" r="7.667" transform="matrix(0,-0.27932651,0.27775385,0,-0.83650071,115.09792)"/><circle style="fill:none;stroke:#f7bd13;stroke-width:3.59016514;stroke-miterlimit:4;stroke-opacity:1;stroke-dasharray:none" id="circle4748" cx="155.004" cy="287.489" r="7.667" transform="matrix(0,-0.27932651,0.27775385,0,-0.70083282,114.8998)"/><circle style="fill:none;stroke:#f7bd13;stroke-width:3.59016514;stroke-miterlimit:4;stroke-opacity:1;stroke-dasharray:none" id="circle4750" cx="155.004" cy="314.156" r="7.667" transform="matrix(0,-0.27932651,0.27775385,0,-0.70083282,114.8998)"/><circle style="fill:none;stroke:#f7bd13;stroke-width:3.59016514;stroke-miterlimit:4;stroke-opacity:1;stroke-dasharray:none" id="circle4752" cx="155.004" cy="340.156" r="7.667" transform="matrix(0,-0.27932651,0.27775385,0,-0.70083282,114.8998)"/><circle style="fill:none;stroke:#f7bd13;stroke-width:3.59016514;stroke-miterlimit:4;stroke-opacity:1;stroke-dasharray:none" id="circle4754" cx="155.004" cy="366.489" r="7.667" transform="matrix(0,-0.27932651,0.27775385,0,-0.70083282,114.8998)"/><circle style="fill:none;stroke:#f7bd13;stroke-width:3.59016514;stroke-miterlimit:4;stroke-opacity:1;stroke-dasharray:none" id="circle4756" cx="155.004" cy="392.457" r="7.667" transform="matrix(0,-0.27932651,0.27775385,0,-0.70083282,114.8998)"/><circle style="fill:none;stroke:#f7bd13;stroke-width:3.59016514;stroke-miterlimit:4;stroke-opacity:1;stroke-dasharray:none" id="circle4758" cx="155.004" cy="418.457" r="7.667" transform="matrix(0,-0.27932651,0.27775385,0,-0.70083282,114.8998)"/><circle style="fill:none;stroke:#f7bd13;stroke-width:3.59016514;stroke-miterlimit:4;stroke-opacity:1;stroke-dasharray:none" id="circle4760" cx="155.004" cy="444.79" r="7.667" transform="matrix(0,-0.27932651,0.27775385,0,-0.70083282,114.8998)"/><circle style="fill:none;stroke:#f7bd13;stroke-width:3.59016514;stroke-miterlimit:4;stroke-opacity:1;stroke-dasharray:none" id="circle4762" cx="155.004" cy="469.124" r="7.667" transform="matrix(0,-0.27932651,0.27775385,0,-0.70083282,114.8998)"/><circle style="fill:none;stroke:#f7bd13;stroke-width:3.59016514;stroke-miterlimit:4;stroke-opacity:1;stroke-dasharray:none" id="circle4764" cx="155.004" cy="495.124" r="7.667" transform="matrix(0,-0.27932651,0.27775385,0,-0.72242391,115.09792)"/><circle style="fill:none;stroke:#f7bd13;stroke-width:3.59016514;stroke-miterlimit:4;stroke-opacity:1;stroke-dasharray:none" id="circle4766" cx="155.004" cy="521.457" r="7.667" transform="matrix(0,-0.27932651,0.27775385,0,-0.83650071,115.09792)"/><circle style="fill:none;stroke:#f7bd13;stroke-width:3.59016514;stroke-miterlimit:4;stroke-opacity:1;stroke-dasharray:none" id="circle4768" cx="129.671" cy="287.489" r="7.667" transform="matrix(0,-0.27932651,0.27775385,0,-0.70083282,115.02364)"/><circle style="fill:none;stroke:#f7bd13;stroke-width:3.59016514;stroke-miterlimit:4;stroke-opacity:1;stroke-dasharray:none" id="circle4770" cx="129.671" cy="314.156" r="7.667" transform="matrix(0,-0.27932651,0.27775385,0,-0.70083282,115.02364)"/><circle style="fill:none;stroke:#f7bd13;stroke-width:3.59016514;stroke-miterlimit:4;stroke-opacity:1;stroke-dasharray:none" id="circle4772" cx="129.671" cy="340.156" r="7.667" transform="matrix(0,-0.27932651,0.27775385,0,-0.70083282,115.02364)"/><circle style="fill:none;stroke:#f7bd13;stroke-width:3.59016514;stroke-miterlimit:4;stroke-opacity:1;stroke-dasharray:none" id="circle4774" cx="129.671" cy="366.489" r="7.667" transform="matrix(0,-0.27932651,0.27775385,0,-0.70083282,115.02364)"/><circle style="fill:none;stroke:#f7bd13;stroke-width:3.59016514;stroke-miterlimit:4;stroke-opacity:1;stroke-dasharray:none" id="circle4776" cx="129.671" cy="392.457" r="7.667" transform="matrix(0,-0.27932651,0.27775385,0,-0.70083282,115.02364)"/><circle style="fill:none;stroke:#f7bd13;stroke-width:3.59016514;stroke-miterlimit:4;stroke-opacity:1;stroke-dasharray:none" id="circle4778" cx="129.671" cy="418.457" r="7.667" transform="matrix(0,-0.27932651,0.27775385,0,-0.70083282,115.02364)"/><circle style="fill:none;stroke:#f7bd13;stroke-width:3.59016514;stroke-miterlimit:4;stroke-opacity:1;stroke-dasharray:none" id="connector_8_" cx="129.671" cy="444.79" r="7.667" gorn=".114" transform="matrix(0,-0.27932651,0.27775385,0,-0.70083282,115.02364)"/><circle style="fill:none;stroke:#f7bd13;stroke-width:3.59016514;stroke-miterlimit:4;stroke-opacity:1;stroke-dasharray:none" id="connector_3_" cx="129.671" cy="469.124" r="7.667" gorn=".115" transform="matrix(0,-0.27932651,0.27775385,0,-0.70083282,115.02364)"/><circle style="fill:none;stroke:#f7bd13;stroke-width:3.59016514;stroke-miterlimit:4;stroke-opacity:1;stroke-dasharray:none" id="connector_2_" cx="129.671" cy="495.124" r="7.667" gorn=".116" transform="matrix(0,-0.27932651,0.27775385,0,-0.72242391,115.09792)"/><circle style="fill:none;stroke:#f7bd13;stroke-width:3.59016514;stroke-miterlimit:4;stroke-opacity:1;stroke-dasharray:none" id="connector_1_" cx="129.671" cy="521.457" r="7.667" gorn=".117" transform="matrix(0,-0.27932651,0.27775385,0,-0.83650071,115.09792)"/></g></g><g id="silkscreen"><g style="stroke:none;stroke-width:1;fill:#fff" id="g4924" transform="matrix(0.27775385,0,0,0.27932651,5.281498,113.64647)"><g style="stroke:none;stroke-width:1;fill:#fff" id="g4926"><g style="stroke:none;stroke-width:1;fill:#fff" id="g4928"><text id="text4930" font-size="12" style="font-size:12px;fill:#fff;stroke:none;stroke-width:1;font-family:Droid Sans">B2</text></g></g></g><g style="stroke:none;stroke-width:1;fill:#fff" id="g4932" transform="matrix(0.27775385,0,0,0.27932651,5.0037405,3.9639283)"><g style="stroke:none;stroke-width:1;fill:#fff" id="g4934"><g style="stroke:none;stroke-width:1;fill:#fff" id="g4936"><text id="text4938" font-size="12" style="font-size:12px;fill:#fff;stroke:none;stroke-width:1;font-family:Droid Sans">A15</text></g></g></g><g style="stroke:none;stroke-width:1;fill:#fff" id="g4940" transform="matrix(0.27775385,0,0,0.27932651,11.953012,3.9639283)"><g style="stroke:none;stroke-width:1;fill:#fff" id="g4942"><g style="stroke:none;stroke-width:1;fill:#fff" id="g4944"><text id="text4946" font-size="12" style="font-size:12px;fill:#fff;stroke:none;stroke-width:1;font-family:Droid Sans">A14</text></g></g></g><g style="stroke:none;stroke-width:1;fill:#fff" id="g4948" transform="matrix(0.27775385,0,0,0.27932651,19.174338,3.9639283)"><g style="stroke:none;stroke-width:1;fill:#fff" id="g4950"><g style="stroke:none;stroke-width:1;fill:#fff" id="g4952"><text id="text4954" font-size="12" style="font-size:12px;fill:#fff;stroke:none;stroke-width:1;font-family:Droid Sans">A13</text></g></g></g><g style="stroke:none;stroke-width:1;fill:#fff" id="g4956" transform="matrix(0.27775385,0,0,0.27932651,26.766469,3.9639283)"><g style="stroke:none;stroke-width:1;fill:#fff" id="g4958"><g style="stroke:none;stroke-width:1;fill:#fff" id="g4960"><text id="text4962" font-size="12" style="font-size:12px;fill:#fff;stroke:none;stroke-width:1;font-family:Droid Sans">A10</text></g></g></g><g style="stroke:none;stroke-width:1;fill:#fff" id="g4964" transform="matrix(0.27775385,0,0,0.27932651,34.543587,3.9639283)"><g style="stroke:none;stroke-width:1;fill:#fff" id="g4966"><g style="stroke:none;stroke-width:1;fill:#fff" id="g4968"><text id="text4970" font-size="12" style="font-size:12px;fill:#fff;stroke:none;stroke-width:1;font-family:Droid Sans">A9</text></g></g></g><g style="stroke:none;stroke-width:1;fill:#fff" id="g4972" transform="matrix(0.27775385,0,0,0.27932651,41.765336,3.9639283)"><g style="stroke:none;stroke-width:1;fill:#fff" id="g4974"><g style="stroke:none;stroke-width:1;fill:#fff" id="g4976"><text id="text4978" font-size="12" style="font-size:12px;fill:#fff;stroke:none;stroke-width:1;font-family:Droid Sans">A8</text></g></g></g><g style="stroke:none;stroke-width:1;fill:#fff" id="g4980" transform="matrix(0.27775385,0,0,0.27932651,47.875789,3.9639283)"><g style="stroke:none;stroke-width:1;fill:#fff" id="g4982"><g style="stroke:none;stroke-width:1;fill:#fff" id="g4984"><text id="text4986" font-size="12" style="font-size:12px;fill:#fff;stroke:none;stroke-width:1;font-family:Droid Sans">C11</text></g></g></g><g style="stroke:none;stroke-width:1;fill:#fff" id="g4988" transform="matrix(0.27775385,0,0,0.27932651,55.375151,3.9639283)"><g style="stroke:none;stroke-width:1;fill:#fff" id="g4990"><g style="stroke:none;stroke-width:1;fill:#fff" id="g4992"><text id="text4994" font-size="12" style="font-size:12px;fill:#fff;stroke:none;stroke-width:1;font-family:Droid Sans">C10</text></g></g></g><g style="stroke:none;stroke-width:1;fill:#fff" id="g4996" transform="matrix(0.27775385,0,0,0.27932651,63.152404,3.9639283)"><g style="stroke:none;stroke-width:1;fill:#fff" id="g4998"><g style="stroke:none;stroke-width:1;fill:#fff" id="g5000"><text id="text5002" font-size="12" style="font-size:12px;fill:#fff;stroke:none;stroke-width:1;font-family:Droid Sans">C9</text></g></g></g><g style="stroke:none;stroke-width:1;fill:#fff" id="g5004" transform="matrix(0.27775385,0,0,0.27932651,70.744394,3.9639283)"><g style="stroke:none;stroke-width:1;fill:#fff" id="g5006"><g style="stroke:none;stroke-width:1;fill:#fff" id="g5008"><text id="text5010" font-size="12" style="font-size:12px;fill:#fff;stroke:none;stroke-width:1;font-family:Droid Sans">C8</text></g></g></g><g style="stroke:none;stroke-width:1;fill:#fff" id="g5012" transform="matrix(0.27775385,0,0,0.27932651,77.410633,3.9639283)"><g style="stroke:none;stroke-width:1;fill:#fff" id="g5014"><g style="stroke:none;stroke-width:1;fill:#fff" id="g5016"><text id="text5018" font-size="12" style="font-size:12px;fill:#fff;stroke:none;stroke-width:1;font-family:Droid Sans">C7</text></g></g></g><g style="stroke:none;stroke-width:1;fill:#fff" id="g5020" transform="matrix(0.27775385,0,0,0.27932651,84.801753,3.9639283)"><g style="stroke:none;stroke-width:1;fill:#fff" id="g5022"><g style="stroke:none;stroke-width:1;fill:#fff" id="g5024"><text id="text5026" font-size="12" style="font-size:12px;fill:#fff;stroke:none;stroke-width:1;font-family:Droid Sans">C6</text></g></g></g><g style="stroke:none;stroke-width:1;fill:#fff" id="g5028" transform="matrix(0.27775385,0,0,0.27932651,92.408802,3.9639283)"><g style="stroke:none;stroke-width:1;fill:#fff" id="g5030"><g style="stroke:none;stroke-width:1;fill:#fff" id="g5032"><text id="text5034" font-size="12" style="font-size:12px;fill:#fff;stroke:none;stroke-width:1;font-family:Droid Sans">C5</text></g></g></g><g style="stroke:none;stroke-width:1;fill:#fff" id="g5036" transform="matrix(0.27775385,0,0,0.27932651,99.445422,3.9639283)"><g style="stroke:none;stroke-width:1;fill:#fff" id="g5038"><g style="stroke:none;stroke-width:1;fill:#fff" id="g5040"><text id="text5042" font-size="12" style="font-size:12px;fill:#fff;stroke:none;stroke-width:1;font-family:Droid Sans">C4</text></g></g></g><g style="stroke:none;stroke-width:1;fill:#fff" id="g5044" transform="matrix(0.27775385,0,0,0.27932651,105.92654,3.9639283)"><g style="stroke:none;stroke-width:1;fill:#fff" id="g5046"><g style="stroke:none;stroke-width:1;fill:#fff" id="g5048"><text id="text5050" font-size="12" style="font-size:12px;fill:#fff;stroke:none;stroke-width:1;font-family:Droid Sans">B15</text></g></g></g><g style="stroke:none;stroke-width:1;fill:#fff" id="g5052" transform="matrix(0.27775385,0,0,0.27932651,112.96288,3.9639283)"><g style="stroke:none;stroke-width:1;fill:#fff" id="g5054"><g style="stroke:none;stroke-width:1;fill:#fff" id="g5056"><text id="text5058" font-size="12" style="font-size:12px;fill:#fff;stroke:none;stroke-width:1;font-family:Droid Sans">B14</text></g></g></g><g style="stroke:none;stroke-width:1;fill:#fff" id="g5060" transform="matrix(0.27775385,0,0,0.27932651,120.53004,3.9639283)"><g style="stroke:none;stroke-width:1;fill:#fff" id="g5062"><g style="stroke:none;stroke-width:1;fill:#fff" id="g5064"><text id="text5066" font-size="12" style="font-size:12px;fill:#fff;stroke:none;stroke-width:1;font-family:Droid Sans">B13</text></g></g></g><g style="stroke:none;stroke-width:1;fill:#fff" id="g5068" transform="matrix(0.27775385,0,0,0.27932651,13.064031,113.64647)"><g style="stroke:none;stroke-width:1;fill:#fff" id="g5070"><g style="stroke:none;stroke-width:1;fill:#fff" id="g5072"><text id="text5074" font-size="12" style="font-size:12px;fill:#fff;stroke:none;stroke-width:1;font-family:Droid Sans">B3</text></g></g></g><g style="stroke:none;stroke-width:1;fill:#fff" id="g5076" transform="matrix(0.27775385,0,0,0.27932651,19.822759,113.64647)"><g style="stroke:none;stroke-width:1;fill:#fff" id="g5078"><g style="stroke:none;stroke-width:1;fill:#fff" id="g5080"><text id="text5082" font-size="12" style="font-size:12px;fill:#fff;stroke:none;stroke-width:1;font-family:Droid Sans">B4</text></g></g></g><g style="stroke:none;stroke-width:1;fill:#fff" id="g5084" transform="matrix(0.27775385,0,0,0.27932651,27.044367,113.64647)"><g style="stroke:none;stroke-width:1;fill:#fff" id="g5086"><g style="stroke:none;stroke-width:1;fill:#fff" id="g5088"><text id="text5090" font-size="12" style="font-size:12px;fill:#fff;stroke:none;stroke-width:1;font-family:Droid Sans">B5</text></g></g></g><g style="stroke:none;stroke-width:1;fill:#fff" id="g5092" transform="matrix(0.27775385,0,0,0.27932651,34.451093,113.64647)"><g style="stroke:none;stroke-width:1;fill:#fff" id="g5094"><g style="stroke:none;stroke-width:1;fill:#fff" id="g5096"><text id="text5098" font-size="12" style="font-size:12px;fill:#fff;stroke:none;stroke-width:1;font-family:Droid Sans">B6</text></g></g></g><g style="stroke:none;stroke-width:1;fill:#fff" id="g5100" transform="matrix(0.27775385,0,0,0.27932651,41.209826,113.64647)"><g style="stroke:none;stroke-width:1;fill:#fff" id="g5102"><g style="stroke:none;stroke-width:1;fill:#fff" id="g5104"><text id="text5106" font-size="12" style="font-size:12px;fill:#fff;stroke:none;stroke-width:1;font-family:Droid Sans">B7</text></g></g></g><g style="stroke:none;stroke-width:1;fill:#fff" id="g5108" transform="matrix(0,-0.27932651,0.27775385,0,71.536436,80.726977)"><g style="stroke:none;stroke-width:1;fill:#fff" id="g5110"><g style="stroke:none;stroke-width:1;fill:#fff" id="g5112"><text id="text5114" font-size="12" style="font-size:12px;fill:#fff;stroke:none;stroke-width:1;font-family:Droid Sans">A2</text></g></g></g><g style="stroke:none;stroke-width:1;fill:#fff" id="g5116" transform="matrix(0,-0.27932651,0.27775385,0,71.536436,73.650651)"><g style="stroke:none;stroke-width:1;fill:#fff" id="g5118"><g style="stroke:none;stroke-width:1;fill:#fff" id="g5120"><text id="text5122" font-size="12" style="font-size:12px;fill:#fff;stroke:none;stroke-width:1;font-family:Droid Sans">A3</text></g></g></g><g style="stroke:none;stroke-width:1;fill:#fff" id="g5124" transform="matrix(0,-0.27932651,0.27775385,0,71.536436,66.574188)"><g style="stroke:none;stroke-width:1;fill:#fff" id="g5126"><g style="stroke:none;stroke-width:1;fill:#fff" id="g5128"><text id="text5130" font-size="12" style="font-size:12px;fill:#fff;stroke:none;stroke-width:1;font-family:Droid Sans">A4</text></g></g></g><g style="stroke:none;stroke-width:1;fill:#fff" id="g5132" transform="matrix(0,-0.27932651,0.27775385,0,71.536436,59.498003)"><g style="stroke:none;stroke-width:1;fill:#fff" id="g5134"><g style="stroke:none;stroke-width:1;fill:#fff" id="g5136"><text id="text5138" font-size="12" style="font-size:12px;fill:#fff;stroke:none;stroke-width:1;font-family:Droid Sans">A5</text></g></g></g><g style="stroke:none;stroke-width:1;fill:#fff" id="g5140" transform="matrix(0,-0.27932651,0.27775385,0,71.536436,51.490682)"><g style="stroke:none;stroke-width:1;fill:#fff" id="g5142"><g style="stroke:none;stroke-width:1;fill:#fff" id="g5144"><text id="text5146" font-size="12" style="font-size:12px;fill:#fff;stroke:none;stroke-width:1;font-family:Droid Sans">A6</text></g></g></g><g style="stroke:none;stroke-width:1;fill:#fff" id="g5148" transform="matrix(0,-0.27932651,0.27775385,0,71.536436,44.693821)"><g style="stroke:none;stroke-width:1;fill:#fff" id="g5150"><g style="stroke:none;stroke-width:1;fill:#fff" id="g5152"><text id="text5154" font-size="12" style="font-size:12px;fill:#fff;stroke:none;stroke-width:1;font-family:Droid Sans">A7</text></g></g></g><g style="stroke:none;stroke-width:1;fill:#fff" id="g5156" transform="matrix(0,-0.27932651,0.27775385,0,71.536436,38.082996)"><g style="stroke:none;stroke-width:1;fill:#fff" id="g5158"><g style="stroke:none;stroke-width:1;fill:#fff" id="g5160"><text id="text5162" font-size="12" style="font-size:12px;fill:#fff;stroke:none;stroke-width:1;font-family:Droid Sans">B0</text></g></g></g><g style="stroke:none;stroke-width:1;fill:#fff" id="g5164" transform="matrix(0,-0.27932651,0.27775385,0,71.536436,31.286136)"><g style="stroke:none;stroke-width:1;fill:#fff" id="g5166"><g style="stroke:none;stroke-width:1;fill:#fff" id="g5168"><text id="text5170" font-size="12" style="font-size:12px;fill:#fff;stroke:none;stroke-width:1;font-family:Droid Sans">B1</text></g></g></g><g style="stroke:none;stroke-width:1;fill:#fff" id="g5172" transform="matrix(0,-0.27932651,0.27775385,0,71.536436,24.489003)"><g style="stroke:none;stroke-width:1;fill:#fff" id="g5174"><g style="stroke:none;stroke-width:1;fill:#fff" id="g5176"><text id="text5178" font-size="12" style="font-size:12px;fill:#fff;stroke:none;stroke-width:1;font-family:Droid Sans">B10</text></g></g></g><g style="stroke:none;stroke-width:1;fill:#fff" id="g5180" transform="matrix(0,-0.27932651,0.27775385,0,71.536436,16.761146)"><g style="stroke:none;stroke-width:1;fill:#fff" id="g5182"><g style="stroke:none;stroke-width:1;fill:#fff" id="g5184"><text id="text5186" font-size="12" style="font-size:12px;fill:#fff;stroke:none;stroke-width:1;font-family:Droid Sans">B11</text></g></g></g><g style="stroke:none;stroke-width:1;fill:#fff" id="g5188" transform="matrix(0.27775385,0,0,0.27932651,48.523928,113.64647)"><g style="stroke:none;stroke-width:1;fill:#fff" id="g5190"><g style="stroke:none;stroke-width:1;fill:#fff" id="g5192"><text id="text5194" font-size="12" style="font-size:12px;fill:#fff;stroke:none;stroke-width:1;font-family:Droid Sans">B8</text></g></g></g><g style="stroke:none;stroke-width:1;fill:#fff" id="g5196" transform="matrix(0.27775385,0,0,0.27932651,56.208413,113.64647)"><g style="stroke:none;stroke-width:1;fill:#fff" id="g5198"><g style="stroke:none;stroke-width:1;fill:#fff" id="g5200"><text id="text5202" font-size="12" style="font-size:12px;fill:#fff;stroke:none;stroke-width:1;font-family:Droid Sans">B9</text></g></g></g><g style="stroke:none;stroke-width:1;fill:#fff" id="g5204" transform="matrix(0.27775385,0,0,0.27932651,61.763627,113.64647)"><g style="stroke:none;stroke-width:1;fill:#fff" id="g5206"><g style="stroke:none;stroke-width:1;fill:#fff" id="g5208"><text id="text5210" font-size="12" style="font-size:12px;fill:#fff;stroke:none;stroke-width:1;font-family:Droid Sans">B12</text></g></g></g><g style="stroke:none;stroke-width:1;fill:#fff" id="g5212" transform="matrix(0.27775385,0,0,0.27932651,69.540745,113.64647)"><g style="stroke:none;stroke-width:1;fill:#fff" id="g5214"><g style="stroke:none;stroke-width:1;fill:#fff" id="g5216"><text id="text5218" font-size="12" style="font-size:12px;fill:#fff;stroke:none;stroke-width:1;font-family:Droid Sans">C12</text></g></g></g><g style="stroke:none;stroke-width:1;fill:#fff" id="g5220" transform="matrix(0.27775385,0,0,0.27932651,76.461544,113.64647)"><g style="stroke:none;stroke-width:1;fill:#fff" id="g5222"><g style="stroke:none;stroke-width:1;fill:#fff" id="g5224"><text id="text5226" font-size="12" style="font-size:12px;fill:#fff;stroke:none;stroke-width:1;font-family:Droid Sans">C15</text></g></g></g><g style="stroke:none;stroke-width:1;fill:#fff" id="g5228" transform="matrix(0.27775385,0,0,0.27932651,84.97943,113.64647)"><g style="stroke:none;stroke-width:1;fill:#fff" id="g5230"><g style="stroke:none;stroke-width:1;fill:#fff" id="g5232"><text id="text5234" font-size="12" style="font-size:12px;fill:#fff;stroke:none;stroke-width:1;font-family:Droid Sans">C0</text></g></g></g><g style="stroke:none;stroke-width:1;fill:#fff" id="g5236" transform="matrix(0.27775385,0,0,0.27932651,92.015775,113.64647)"><g style="stroke:none;stroke-width:1;fill:#fff" id="g5238"><g style="stroke:none;stroke-width:1;fill:#fff" id="g5240"><text id="text5242" font-size="12" style="font-size:12px;fill:#fff;stroke:none;stroke-width:1;font-family:Droid Sans">C1</text></g></g></g><g style="stroke:none;stroke-width:1;fill:#fff" id="g5244" transform="matrix(0.27775385,0,0,0.27932651,99.328236,113.64647)"><g style="stroke:none;stroke-width:1;fill:#fff" id="g5246"><g style="stroke:none;stroke-width:1;fill:#fff" id="g5248"><text id="text5250" font-size="12" style="font-size:12px;fill:#fff;stroke:none;stroke-width:1;font-family:Droid Sans">C2</text></g></g></g><g style="stroke:none;stroke-width:1;fill:#fff" id="g5252" transform="matrix(0.27775385,0,0,0.27932651,106.82788,113.64647)"><g style="stroke:none;stroke-width:1;fill:#fff" id="g5254"><g style="stroke:none;stroke-width:1;fill:#fff" id="g5256"><text id="text5258" font-size="12" style="font-size:12px;fill:#fff;stroke:none;stroke-width:1;font-family:Droid Sans">C3</text></g></g></g><g style="stroke:none;stroke-width:1;fill:#fff" id="g5260" transform="matrix(0.27775385,0,0,0.27932651,113.49397,113.64647)"><g style="stroke:none;stroke-width:1;fill:#fff" id="g5262"><g style="stroke:none;stroke-width:1;fill:#fff" id="g5264"><text id="text5266" font-size="12" style="font-size:12px;fill:#fff;stroke:none;stroke-width:1;font-family:Droid Sans">A0</text></g></g></g><g style="stroke:none;stroke-width:1;fill:#fff" id="g5268" transform="matrix(0.27775385,0,0,0.27932651,121.1786,113.64647)"><g style="stroke:none;stroke-width:1;fill:#fff" id="g5270"><g style="stroke:none;stroke-width:1;fill:#fff" id="g5272"><text id="text5274" font-size="12" style="font-size:12px;fill:#fff;stroke:none;stroke-width:1;font-family:Droid Sans">A1</text></g></g></g><g style="stroke:none;stroke-width:1;fill:#fff" id="g5276" transform="matrix(0.27775385,0,0,0.27932651,127.47446,113.64647)"><g style="stroke:none;stroke-width:1;fill:#fff" id="g5278"><g style="stroke:none;stroke-width:1;fill:#fff" id="g5280"><text id="text5282" font-size="12" style="font-size:12px;fill:#fff;stroke:none;stroke-width:1;font-family:Droid Sans">3.3</text></g></g></g><g style="stroke:none;stroke-width:1;fill:#fff" id="g5284" transform="matrix(0.27775385,0,0,0.27932651,134.60329,113.64647)"><g style="stroke:none;stroke-width:1;fill:#fff" id="g5286"><g style="stroke:none;stroke-width:1;fill:#fff" id="g5288"><text id="text5290" font-size="12" style="font-size:12px;fill:#fff;stroke:none;stroke-width:1;font-family:Droid Sans">Bat</text></g></g></g><g style="stroke:none;stroke-width:1;fill:#fff" id="g5292" transform="matrix(0.27775385,0,0,0.27932651,141.17689,113.64647)"><g style="stroke:none;stroke-width:1;fill:#fff" id="g5294"><g style="stroke:none;stroke-width:1;fill:#fff" id="g5296"><text id="text5298" font-size="12" style="font-size:12px;fill:#fff;stroke:none;stroke-width:1;font-family:Droid Sans">GND</text></g></g></g><g style="stroke:none;stroke-width:1;fill:#fff" id="g5300" transform="matrix(0.27775385,0,0,0.27932651,127.75221,4.0572235)"><g style="stroke:none;stroke-width:1;fill:#fff" id="g5302"><g style="stroke:none;stroke-width:1;fill:#fff" id="g5304"><text id="text5306" font-size="12" style="font-size:12px;fill:#fff;stroke:none;stroke-width:1;font-family:Droid Sans">3.3</text></g></g></g><g style="stroke:none;stroke-width:1;fill:#fff" id="g5308" transform="matrix(0.27775385,0,0,0.27932651,134.88105,4.0572235)"><g style="stroke:none;stroke-width:1;fill:#fff" id="g5310"><g style="stroke:none;stroke-width:1;fill:#fff" id="g5312"><text id="text5314" font-size="12" style="font-size:12px;fill:#fff;stroke:none;stroke-width:1;font-family:Droid Sans">Bat</text></g></g></g><g style="stroke:none;stroke-width:1;fill:#fff" id="g5316" transform="matrix(0.27775385,0,0,0.27932651,141.17689,4.0572235)"><g style="stroke:none;stroke-width:1;fill:#fff" id="g5318"><g style="stroke:none;stroke-width:1;fill:#fff" id="g5320"><text id="text5322" font-size="12" style="font-size:12px;fill:#fff;stroke:none;stroke-width:1;font-family:Droid Sans">GND</text></g></g></g><g id="g8959" transform="matrix(0.27932651,0,0,0.27775385,45.598378,20.722579)" style="stroke:none;stroke-width:1;fill:#fff"><g id="g8961" style="stroke:none;stroke-width:1;fill:#fff"><g id="g8963" style="stroke:none;stroke-width:1;fill:#fff"><text style="font-size:12px;fill:#fff;stroke:none;stroke-width:1;font-family:Droid Sans" id="text8965" font-size="12">RST</text></g></g></g><g id="g8967" transform="matrix(0.27932651,0,0,0.27775385,52.146482,20.722579)" style="stroke:none;stroke-width:1;fill:#fff"><g id="g8969" style="stroke:none;stroke-width:1;fill:#fff"><g id="g8971" style="stroke:none;stroke-width:1;fill:#fff"><text style="font-size:12px;fill:#fff;stroke:none;stroke-width:1;font-family:Droid Sans" id="text8973" font-size="12">BOOT0</text></g></g></g><path id="path3520" d="m 0,0 189.56693,0 0,143.50394 L 0,143.50394 0,-0.49606323 z" transform="matrix(0.800001,0,0,0.800001,0,-1.6160814e-4)" style="fill:none;stroke:#fff;stroke-width:1px;stroke-linecap:butt;stroke-linejoin:miter;stroke-opacity:1"/></g></svg>