<svg xmlns="http://www.w3.org/2000/svg" xmlns:svg="http://www.w3.org/2000/svg" id="Ebene_1" width="126" height="81" x="0" y="0" enable-background="new 0 0 195.09 151.734" gorn="0" version="1.1" viewBox="0 0 100.8 64.8" xml:space="preserve"><metadata id="metadata47"/><g id="silkscreen" transform="translate(0,7.1999894)"><text style="font-size:3.34246874px;fill:#fff;stroke:none;font-family:Droid Sans" id="text4930" x="25.171" y="53.247" font-size="12" transform="scale(0.99718096,1.002827)">GND</text><text style="font-size:3.34246874px;fill:#fff;stroke:none;font-family:Droid Sans" id="text4938" x="26.647" y="-.564" font-size="12" transform="scale(0.99718096,1.002827)">Vin</text><text style="font-size:3.34246874px;fill:#fff;stroke:none;font-family:Droid Sans" id="text4946" x="33.153" y="-.618" font-size="12" transform="scale(0.99718096,1.002827)">B15</text><text style="font-size:3.34246874px;fill:#fff;stroke:none;font-family:Droid Sans" id="text4954" x="40.314" y="-.595" font-size="12" transform="scale(0.99718096,1.002827)">B14</text><text style="font-size:3.34246874px;fill:#fff;stroke:none;font-family:Droid Sans" id="text4962" x="47.601" y="-.601" font-size="12" transform="scale(0.99718096,1.002827)">B13</text><text style="font-size:3.34246874px;fill:#fff;stroke:none;font-family:Droid Sans" id="text4970" x="54.8" y="-.599" font-size="12" transform="scale(0.99718096,1.002827)">B10</text><text style="font-size:3.34246874px;fill:#fff;stroke:none;font-family:Droid Sans" id="text4978" x="63.203" y="-.602" font-size="12" transform="scale(0.99718096,1.002827)">B1</text><text style="font-size:3.34246874px;fill:#fff;stroke:none;font-family:Droid Sans" id="text4986" x="70.348" y="-.597" font-size="12" transform="scale(0.99718096,1.002827)">A7</text><text style="font-size:3.34246874px;fill:#fff;stroke:none;font-family:Droid Sans" id="text4994" x="77.565" y="-.601" font-size="12" transform="scale(0.99718096,1.002827)">A6</text><text style="font-size:3.34246874px;fill:#fff;stroke:none;font-family:Droid Sans" id="text5002" x="84.802" y="-.613" font-size="12" transform="scale(0.99718096,1.002827)">A5</text><text style="font-size:3.34246874px;fill:#fff;stroke:none;font-family:Droid Sans" id="text5074" x="33.758" y="53.093" font-size="12" transform="scale(0.99718096,1.002827)">Vout</text><text style="font-size:3.34246874px;fill:#fff;stroke:none;font-family:Droid Sans" id="text5082" x="41.763" y="53.093" font-size="12" transform="scale(0.99718096,1.002827)">3.3</text><text style="font-size:3.34246874px;fill:#fff;stroke:none;font-family:Droid Sans" id="text5090" x="48.869" y="53.247" font-size="12" transform="scale(0.99718096,1.002827)">B3</text><text style="font-size:3.34246874px;fill:#fff;stroke:none;font-family:Droid Sans" id="text5098" x="55.675" y="53.252" font-size="12" transform="scale(0.99718096,1.002827)">B4</text><text style="font-size:3.34246874px;fill:#fff;stroke:none;font-family:Droid Sans" id="text5106" x="62.608" y="53.23" font-size="12" transform="scale(0.99718096,1.002827)">B5</text><text style="font-size:3.34246874px;fill:#fff;stroke:none;font-family:Droid Sans" id="text5194" x="69.962" y="53.247" font-size="12" transform="scale(0.99718096,1.002827)">B6</text><text style="font-size:3.34246874px;fill:#fff;stroke:none;font-family:Droid Sans" id="text5202" x="77.186" y="53.246" font-size="12" transform="scale(0.99718096,1.002827)">B7</text><text style="font-size:3.34246874px;fill:#fff;stroke:none;font-family:Droid Sans" id="text5210" x="84.596" y="53.248" font-size="12" transform="scale(0.99718096,1.002827)">A8</text><path id="path3520" d="m 25.20003,3.5999553 64.250082,0 0,43.2000517 -64.250082,0 0,-3.600005 L 0,43.19992 0,7.199879 l 25.20003,8.06e-5 c -0.05997,-2.108477 0.04964,-2.1769712 0,-3.6000043 z" style="fill:none;stroke:#fff;stroke-width:.36636028px;stroke-linecap:butt;stroke-linejoin:miter;stroke-opacity:1"/><text id="text3893" x="91.908" y="17.352" font-size="12" transform="scale(0.99718096,1.002827)" style="font-size:3.34246874px;fill:#fff;stroke:none;font-family:Droid Sans">A3</text><text style="font-size:3.34246874px;fill:#fff;stroke:none;font-family:Droid Sans" id="text3895" x="91.908" y="20.942" font-size="12" transform="scale(0.99718096,1.002827)">A2</text><text id="text3897" x="91.908" y="28.122" font-size="12" transform="scale(0.99718096,1.002827)" style="font-size:3.34246874px;fill:#fff;stroke:none;font-family:Droid Sans">A0</text><text style="font-size:3.34246874px;fill:#fff;stroke:none;font-family:Droid Sans" id="text3899" x="91.908" y="24.532" font-size="12" transform="scale(0.99718096,1.002827)">A1</text><text id="text3901" x="91.908" y="31.712" font-size="12" transform="scale(0.99718096,1.002827)" style="font-size:3.34246874px;fill:#fff;stroke:none;font-family:Droid Sans">A10</text><text style="font-size:3.34246874px;fill:#fff;stroke:none;font-family:Droid Sans" id="text3903" x="91.908" y="35.302" font-size="12" transform="scale(0.99718096,1.002827)">B9</text><text id="text3905" x="91.908" y="38.891" font-size="12" transform="scale(0.99718096,1.002827)" style="font-size:3.34246874px;fill:#fff;stroke:none;font-family:Droid Sans">B8</text><text style="font-size:3.34246874px;fill:#fff;stroke:none;font-family:Droid Sans" id="text3907" x="91.915" y="13.775" font-size="12" transform="scale(0.99718096,1.002827)">A4</text></g><g id="copper1" transform="translate(0,7.1999894)"><g id="copper0"><path id="path3885" d="m 31.320452,43.198686 c 0,-1.385791 -1.136843,-2.522633 -2.522633,-2.522633 -1.385789,0 -2.510749,1.136847 -2.514415,2.522633 -0.0038,1.441318 -0.0038,2.161319 -0.0038,3.601321 1.3e-5,1.440001 1.079988,2.520003 2.520003,2.520003 1.439989,0 2.51999,-1.080002 2.51999,-2.520003 0,-1.440002 8.68e-4,-3.601321 8.68e-4,-3.601321 z" style="font-size:medium;font-style:normal;font-variant:normal;font-weight:400;font-stretch:normal;text-indent:0;text-align:start;text-decoration:none;line-height:normal;letter-spacing:normal;word-spacing:normal;text-transform:none;direction:ltr;block-progression:tb;writing-mode:lr-tb;text-anchor:start;baseline-shift:baseline;color:#000;fill:#f7bd13;fill-opacity:1;stroke:none;stroke-width:3.83350015;marker:none;visibility:visible;display:inline;overflow:visible;enable-background:accumulate;font-family:Sans;-inkscape-font-specification:Sans"/><circle style="fill:#000;stroke:none" id="circle4592" cx="180.338" cy="235.213" r="7.667" d="m 188.005,235.213 c 0,4.23436 -3.43264,7.667 -7.667,7.667 -4.23437,0 -7.667,-3.43264 -7.667,-7.667 0,-4.23437 3.43263,-7.667 7.667,-7.667 4.23436,0 7.667,3.43263 7.667,7.667 z" transform="matrix(0,-0.18781815,0.18781815,0,-15.377235,77.070733)"/><path style="font-size:medium;font-style:normal;font-variant:normal;font-weight:400;font-stretch:normal;text-indent:0;text-align:start;text-decoration:none;line-height:normal;letter-spacing:normal;word-spacing:normal;text-transform:none;direction:ltr;block-progression:tb;writing-mode:lr-tb;text-anchor:start;baseline-shift:baseline;color:#000;fill:#f7bd13;fill-opacity:1;stroke:none;stroke-width:3.83350015;marker:none;visibility:visible;display:inline;overflow:visible;enable-background:accumulate;font-family:Sans;-inkscape-font-specification:Sans" id="circle4556" d="m 26.279176,7.2012764 c 0,1.3857906 1.136843,2.5226324 2.522633,2.5226324 1.385789,0 2.510749,-1.1368466 2.514415,-2.5226324 0.0038,-1.4413185 0.0038,-2.1613193 0.0038,-3.6013211 -1.3e-5,-1.4400017 -1.079988,-2.5200029 -2.520003,-2.5200029 -1.439989,0 -2.51999,1.0800012 -2.51999,2.5200029 0,1.4400018 -8.68e-4,3.6013211 -8.68e-4,3.6013211 z"/><path style="font-size:medium;font-style:normal;font-variant:normal;font-weight:400;font-stretch:normal;text-indent:0;text-align:start;text-decoration:none;line-height:normal;letter-spacing:normal;word-spacing:normal;text-transform:none;direction:ltr;block-progression:tb;writing-mode:lr-tb;text-anchor:start;baseline-shift:baseline;color:#000;fill:#f7bd13;fill-opacity:1;stroke:none;stroke-width:2.70599985;marker:none;visibility:visible;display:inline;overflow:visible;enable-background:accumulate;font-family:Sans;-inkscape-font-specification:Sans" id="circle3024" d="m 84.959223,37.800793 c 8.78e-4,0.863202 0.576878,1.43441 1.441797,1.436809 0.863083,0.0024 2.735086,0.0024 3.599087,0.0024 0.864001,-6e-6 1.440002,-0.576014 1.440001,-1.440008 0,-0.864008 -0.576,-1.439995 -1.440001,-1.440002 -0.864001,-7e-6 -2.736004,7e-6 -3.600005,1.4e-5 -0.864001,7e-6 -1.441758,0.576001 -1.440879,1.440787 z"/><path id="path3833" d="m 84.959662,34.200789 c 8.78e-4,0.863202 0.576878,1.43441 1.441797,1.436809 0.863083,0.0024 2.734647,0.0024 3.598648,0.0024 0.864001,-6e-6 1.440002,-0.576014 1.440001,-1.440008 0,-0.864008 -0.576,-1.439995 -1.440001,-1.440002 -0.864001,-7e-6 -2.735565,7e-6 -3.599566,1.4e-5 -0.864001,7e-6 -1.441758,0.576001 -1.440879,1.440787 z" style="font-size:medium;font-style:normal;font-variant:normal;font-weight:400;font-stretch:normal;text-indent:0;text-align:start;text-decoration:none;line-height:normal;letter-spacing:normal;word-spacing:normal;text-transform:none;direction:ltr;block-progression:tb;writing-mode:lr-tb;text-anchor:start;baseline-shift:baseline;color:#000;fill:#f7bd13;fill-opacity:1;stroke:none;stroke-width:2.70599985;marker:none;visibility:visible;display:inline;overflow:visible;enable-background:accumulate;font-family:Sans;-inkscape-font-specification:Sans"/><path style="font-size:medium;font-style:normal;font-variant:normal;font-weight:400;font-stretch:normal;text-indent:0;text-align:start;text-decoration:none;line-height:normal;letter-spacing:normal;word-spacing:normal;text-transform:none;direction:ltr;block-progression:tb;writing-mode:lr-tb;text-anchor:start;baseline-shift:baseline;color:#000;fill:#f7bd13;fill-opacity:1;stroke:none;stroke-width:2.70599985;marker:none;visibility:visible;display:inline;overflow:visible;enable-background:accumulate;font-family:Sans;-inkscape-font-specification:Sans" id="path3835" d="m 84.959662,30.600784 c 8.78e-4,0.863202 0.576878,1.43441 1.441797,1.436809 0.863083,0.0024 2.734647,0.0024 3.598648,0.0024 0.864001,-6e-6 1.440002,-0.576014 1.440001,-1.440008 0,-0.864008 -0.576,-1.439995 -1.440001,-1.440002 -0.864001,-7e-6 -2.735565,7e-6 -3.599566,1.4e-5 -0.864001,7e-6 -1.441758,0.576001 -1.440879,1.440787 z"/><path id="path3837" d="m 84.959882,27.000779 c 8.78e-4,0.863202 0.576878,1.43441 1.441797,1.436809 0.863083,0.0024 2.734647,0.0024 3.598648,0.0024 0.864001,-6e-6 1.440002,-0.576014 1.440001,-1.440008 0,-0.864008 -0.576,-1.439995 -1.440001,-1.440002 -0.864001,-7e-6 -2.736004,-5e-6 -3.600005,2e-6 -0.864001,7e-6 -1.441319,0.576013 -1.44044,1.440799 z" style="font-size:medium;font-style:normal;font-variant:normal;font-weight:400;font-stretch:normal;text-indent:0;text-align:start;text-decoration:none;line-height:normal;letter-spacing:normal;word-spacing:normal;text-transform:none;direction:ltr;block-progression:tb;writing-mode:lr-tb;text-anchor:start;baseline-shift:baseline;color:#000;fill:#f7bd13;fill-opacity:1;stroke:none;stroke-width:2.70599985;marker:none;visibility:visible;display:inline;overflow:visible;enable-background:accumulate;font-family:Sans;-inkscape-font-specification:Sans"/><path style="font-size:medium;font-style:normal;font-variant:normal;font-weight:400;font-stretch:normal;text-indent:0;text-align:start;text-decoration:none;line-height:normal;letter-spacing:normal;word-spacing:normal;text-transform:none;direction:ltr;block-progression:tb;writing-mode:lr-tb;text-anchor:start;baseline-shift:baseline;color:#000;fill:#f7bd13;fill-opacity:1;stroke:none;stroke-width:2.70599985;marker:none;visibility:visible;display:inline;overflow:visible;enable-background:accumulate;font-family:Sans;-inkscape-font-specification:Sans" id="path3839" d="m 84.959662,23.400776 c 8.78e-4,0.863202 0.576878,1.43441 1.441797,1.436809 0.863083,0.0024 2.734647,0.0024 3.598648,0.0024 0.864001,-6e-6 1.440002,-0.576014 1.440001,-1.440008 0,-0.864008 -0.576,-1.439995 -1.440001,-1.440002 -0.864001,-7e-6 -2.735565,7e-6 -3.599566,1.4e-5 -0.864001,7e-6 -1.441758,0.576001 -1.440879,1.440787 z"/><path id="path3841" d="m 84.959662,19.800772 c 8.78e-4,0.863202 0.576878,1.43441 1.441797,1.436809 0.863083,0.0024 2.734647,0.0024 3.598648,0.0024 0.864001,-6e-6 1.440002,-0.576014 1.440001,-1.440008 0,-0.864008 -0.576,-1.439995 -1.440001,-1.440002 -0.864001,-7e-6 -2.735565,7e-6 -3.599566,1.4e-5 -0.864001,7e-6 -1.441758,0.576001 -1.440879,1.440787 z" style="font-size:medium;font-style:normal;font-variant:normal;font-weight:400;font-stretch:normal;text-indent:0;text-align:start;text-decoration:none;line-height:normal;letter-spacing:normal;word-spacing:normal;text-transform:none;direction:ltr;block-progression:tb;writing-mode:lr-tb;text-anchor:start;baseline-shift:baseline;color:#000;fill:#f7bd13;fill-opacity:1;stroke:none;stroke-width:2.70599985;marker:none;visibility:visible;display:inline;overflow:visible;enable-background:accumulate;font-family:Sans;-inkscape-font-specification:Sans"/><path style="font-size:medium;font-style:normal;font-variant:normal;font-weight:400;font-stretch:normal;text-indent:0;text-align:start;text-decoration:none;line-height:normal;letter-spacing:normal;word-spacing:normal;text-transform:none;direction:ltr;block-progression:tb;writing-mode:lr-tb;text-anchor:start;baseline-shift:baseline;color:#000;fill:#f7bd13;fill-opacity:1;stroke:none;stroke-width:2.70599985;marker:none;visibility:visible;display:inline;overflow:visible;enable-background:accumulate;font-family:Sans;-inkscape-font-specification:Sans" id="path3843" d="m 84.956132,16.200765 c 8.78e-4,0.863202 0.576878,1.43441 1.441797,1.436809 0.863083,0.0024 2.734647,0.0024 3.598648,0.0024 0.864001,-6e-6 1.440002,-0.576008 1.440001,-1.440002 0,-0.864008 -0.576,-1.439997 -1.440001,-1.440004 -0.864001,-7e-6 -2.735565,7e-6 -3.599566,1.4e-5 -0.864001,7e-6 -1.441758,0.576001 -1.440879,1.440783 z"/><path id="path3853" d="m 33.479625,7.2012764 c 0,1.3857906 1.136843,2.5226324 2.522633,2.5226324 1.385789,0 2.510749,-1.1368466 2.514415,-2.5226324 0.0038,-1.4413185 0.0038,-2.1613193 0.0038,-3.6013211 -1.3e-5,-1.4400017 -1.079988,-2.5200029 -2.520003,-2.5200029 -1.439989,0 -2.51999,1.0800012 -2.51999,2.5200029 0,1.4400018 -8.68e-4,3.6013211 -8.68e-4,3.6013211 z" style="font-size:medium;font-style:normal;font-variant:normal;font-weight:400;font-stretch:normal;text-indent:0;text-align:start;text-decoration:none;line-height:normal;letter-spacing:normal;word-spacing:normal;text-transform:none;direction:ltr;block-progression:tb;writing-mode:lr-tb;text-anchor:start;baseline-shift:baseline;color:#000;fill:#f7bd13;fill-opacity:1;stroke:none;stroke-width:3.83350015;marker:none;visibility:visible;display:inline;overflow:visible;enable-background:accumulate;font-family:Sans;-inkscape-font-specification:Sans"/><path style="font-size:medium;font-style:normal;font-variant:normal;font-weight:400;font-stretch:normal;text-indent:0;text-align:start;text-decoration:none;line-height:normal;letter-spacing:normal;word-spacing:normal;text-transform:none;direction:ltr;block-progression:tb;writing-mode:lr-tb;text-anchor:start;baseline-shift:baseline;color:#000;fill:#f7bd13;fill-opacity:1;stroke:none;stroke-width:3.83350015;marker:none;visibility:visible;display:inline;overflow:visible;enable-background:accumulate;font-family:Sans;-inkscape-font-specification:Sans" id="path3855" d="m 40.679634,7.2012764 c 0,1.3857906 1.136843,2.5226324 2.522633,2.5226324 1.385789,0 2.510749,-1.1368466 2.514415,-2.5226324 0.0038,-1.4413185 0.0038,-2.1613193 0.0038,-3.6013211 -1.3e-5,-1.4400017 -1.079988,-2.5200029 -2.520003,-2.5200029 -1.439989,0 -2.51999,1.0800012 -2.51999,2.5200029 0,1.4400018 -8.68e-4,3.6013211 -8.68e-4,3.6013211 z"/><path id="path3857" d="m 47.879642,7.2012764 c 0,1.3857906 1.136843,2.5226324 2.522633,2.5226324 1.385789,0 2.510749,-1.1368466 2.514415,-2.5226324 0.0038,-1.4413185 0.0038,-2.1613193 0.0038,-3.6013211 -1.3e-5,-1.4400017 -1.079988,-2.5200029 -2.520003,-2.5200029 -1.439989,0 -2.51999,1.0800012 -2.51999,2.5200029 0,1.4400018 -8.68e-4,3.6013211 -8.68e-4,3.6013211 z" style="font-size:medium;font-style:normal;font-variant:normal;font-weight:400;font-stretch:normal;text-indent:0;text-align:start;text-decoration:none;line-height:normal;letter-spacing:normal;word-spacing:normal;text-transform:none;direction:ltr;block-progression:tb;writing-mode:lr-tb;text-anchor:start;baseline-shift:baseline;color:#000;fill:#f7bd13;fill-opacity:1;stroke:none;stroke-width:3.83350015;marker:none;visibility:visible;display:inline;overflow:visible;enable-background:accumulate;font-family:Sans;-inkscape-font-specification:Sans"/><path style="font-size:medium;font-style:normal;font-variant:normal;font-weight:400;font-stretch:normal;text-indent:0;text-align:start;text-decoration:none;line-height:normal;letter-spacing:normal;word-spacing:normal;text-transform:none;direction:ltr;block-progression:tb;writing-mode:lr-tb;text-anchor:start;baseline-shift:baseline;color:#000;fill:#f7bd13;fill-opacity:1;stroke:none;stroke-width:3.83350015;marker:none;visibility:visible;display:inline;overflow:visible;enable-background:accumulate;font-family:Sans;-inkscape-font-specification:Sans" id="path3859" d="m 55.079651,7.2012764 c 0,1.3857906 1.136843,2.5226324 2.522633,2.5226324 1.385789,0 2.510749,-1.1368466 2.514415,-2.5226324 0.0038,-1.4413185 0.0038,-2.1613193 0.0038,-3.6013211 -1.3e-5,-1.4400017 -1.079988,-2.5200029 -2.520003,-2.5200029 -1.439989,0 -2.51999,1.0800012 -2.51999,2.5200029 0,1.4400018 -8.68e-4,3.6013211 -8.68e-4,3.6013211 z"/><path id="path3861" d="m 62.279659,7.2012764 c 0,1.3857906 1.136843,2.5226324 2.522633,2.5226324 1.385789,0 2.510749,-1.1368466 2.514415,-2.5226324 0.0038,-1.4413185 0.0038,-2.1613193 0.0038,-3.6013211 -1.3e-5,-1.4400017 -1.079988,-2.5200029 -2.520003,-2.5200029 -1.439989,0 -2.51999,1.0800012 -2.51999,2.5200029 0,1.4400018 -8.68e-4,3.6013211 -8.68e-4,3.6013211 z" style="font-size:medium;font-style:normal;font-variant:normal;font-weight:400;font-stretch:normal;text-indent:0;text-align:start;text-decoration:none;line-height:normal;letter-spacing:normal;word-spacing:normal;text-transform:none;direction:ltr;block-progression:tb;writing-mode:lr-tb;text-anchor:start;baseline-shift:baseline;color:#000;fill:#f7bd13;fill-opacity:1;stroke:none;stroke-width:3.83350015;marker:none;visibility:visible;display:inline;overflow:visible;enable-background:accumulate;font-family:Sans;-inkscape-font-specification:Sans"/><path style="font-size:medium;font-style:normal;font-variant:normal;font-weight:400;font-stretch:normal;text-indent:0;text-align:start;text-decoration:none;line-height:normal;letter-spacing:normal;word-spacing:normal;text-transform:none;direction:ltr;block-progression:tb;writing-mode:lr-tb;text-anchor:start;baseline-shift:baseline;color:#000;fill:#f7bd13;fill-opacity:1;stroke:none;stroke-width:3.83350015;marker:none;visibility:visible;display:inline;overflow:visible;enable-background:accumulate;font-family:Sans;-inkscape-font-specification:Sans" id="path3863" d="m 69.479668,7.2012764 c 0,1.3857906 1.136843,2.5226324 2.522633,2.5226324 1.385789,0 2.510749,-1.1368466 2.514415,-2.5226324 0.0038,-1.4413185 0.0038,-2.1613193 0.0038,-3.6013211 -1.3e-5,-1.4400017 -1.079988,-2.5200029 -2.520003,-2.5200029 -1.439989,0 -2.51999,1.0800012 -2.51999,2.5200029 0,1.4400018 -8.68e-4,3.6013211 -8.68e-4,3.6013211 z"/><path id="path3865" d="m 76.679676,7.2012764 c 0,1.3857906 1.136843,2.5226324 2.522633,2.5226324 1.385789,0 2.510749,-1.1368466 2.514415,-2.5226324 0.0038,-1.4413185 0.0038,-2.1613193 0.0038,-3.6013211 -1.3e-5,-1.4400017 -1.079988,-2.5200029 -2.520003,-2.5200029 -1.439989,0 -2.51999,1.0800012 -2.51999,2.5200029 0,1.4400018 -8.68e-4,3.6013211 -8.68e-4,3.6013211 z" style="font-size:medium;font-style:normal;font-variant:normal;font-weight:400;font-stretch:normal;text-indent:0;text-align:start;text-decoration:none;line-height:normal;letter-spacing:normal;word-spacing:normal;text-transform:none;direction:ltr;block-progression:tb;writing-mode:lr-tb;text-anchor:start;baseline-shift:baseline;color:#000;fill:#f7bd13;fill-opacity:1;stroke:none;stroke-width:3.83350015;marker:none;visibility:visible;display:inline;overflow:visible;enable-background:accumulate;font-family:Sans;-inkscape-font-specification:Sans"/><path style="font-size:medium;font-style:normal;font-variant:normal;font-weight:400;font-stretch:normal;text-indent:0;text-align:start;text-decoration:none;line-height:normal;letter-spacing:normal;word-spacing:normal;text-transform:none;direction:ltr;block-progression:tb;writing-mode:lr-tb;text-anchor:start;baseline-shift:baseline;color:#000;fill:#f7bd13;fill-opacity:1;stroke:none;stroke-width:3.83350015;marker:none;visibility:visible;display:inline;overflow:visible;enable-background:accumulate;font-family:Sans;-inkscape-font-specification:Sans" id="path3867" d="m 83.879685,7.2012764 c 0,1.3857906 1.136843,2.5226324 2.522633,2.5226324 1.385789,0 2.510749,-1.1368466 2.514415,-2.5226324 0.0038,-1.4413185 0.0038,-2.1613193 0.0038,-3.6013211 -1.3e-5,-1.4400017 -1.079988,-2.5200029 -2.520003,-2.5200029 -1.439989,0 -2.51999,1.0800012 -2.51999,2.5200029 0,1.4400018 -8.68e-4,3.6013211 -8.68e-4,3.6013211 z"/><path id="path3869" d="m 88.92052,43.198686 c 0,-1.385791 -1.136843,-2.522633 -2.522633,-2.522633 -1.385789,0 -2.510749,1.136847 -2.514415,2.522633 -0.0038,1.441318 -0.0038,2.161319 -0.0038,3.601321 1.3e-5,1.440001 1.079988,2.520003 2.520003,2.520003 1.439989,0 2.51999,-1.080002 2.51999,-2.520003 0,-1.440002 8.68e-4,-3.601321 8.68e-4,-3.601321 z" style="font-size:medium;font-style:normal;font-variant:normal;font-weight:400;font-stretch:normal;text-indent:0;text-align:start;text-decoration:none;line-height:normal;letter-spacing:normal;word-spacing:normal;text-transform:none;direction:ltr;block-progression:tb;writing-mode:lr-tb;text-anchor:start;baseline-shift:baseline;color:#000;fill:#f7bd13;fill-opacity:1;stroke:none;stroke-width:3.83350015;marker:none;visibility:visible;display:inline;overflow:visible;enable-background:accumulate;font-family:Sans;-inkscape-font-specification:Sans"/><path style="font-size:medium;font-style:normal;font-variant:normal;font-weight:400;font-stretch:normal;text-indent:0;text-align:start;text-decoration:none;line-height:normal;letter-spacing:normal;word-spacing:normal;text-transform:none;direction:ltr;block-progression:tb;writing-mode:lr-tb;text-anchor:start;baseline-shift:baseline;color:#000;fill:#f7bd13;fill-opacity:1;stroke:none;stroke-width:3.83350015;marker:none;visibility:visible;display:inline;overflow:visible;enable-background:accumulate;font-family:Sans;-inkscape-font-specification:Sans" id="path3871" d="m 81.720511,43.198686 c 0,-1.385791 -1.136843,-2.522633 -2.522633,-2.522633 -1.385789,0 -2.510749,1.136847 -2.514415,2.522633 -0.0038,1.441318 -0.0038,2.161319 -0.0038,3.601321 1.3e-5,1.440001 1.079988,2.520003 2.520003,2.520003 1.439989,0 2.51999,-1.080002 2.51999,-2.520003 0,-1.440002 8.68e-4,-3.601321 8.68e-4,-3.601321 z"/><path id="path3873" d="m 74.520503,43.198686 c 0,-1.385791 -1.136843,-2.522633 -2.522633,-2.522633 -1.385789,0 -2.510749,1.136847 -2.514415,2.522633 -0.0038,1.441318 -0.0038,2.161319 -0.0038,3.601321 1.3e-5,1.440001 1.079988,2.520003 2.520003,2.520003 1.439989,0 2.51999,-1.080002 2.51999,-2.520003 0,-1.440002 8.68e-4,-3.601321 8.68e-4,-3.601321 z" style="font-size:medium;font-style:normal;font-variant:normal;font-weight:400;font-stretch:normal;text-indent:0;text-align:start;text-decoration:none;line-height:normal;letter-spacing:normal;word-spacing:normal;text-transform:none;direction:ltr;block-progression:tb;writing-mode:lr-tb;text-anchor:start;baseline-shift:baseline;color:#000;fill:#f7bd13;fill-opacity:1;stroke:none;stroke-width:3.83350015;marker:none;visibility:visible;display:inline;overflow:visible;enable-background:accumulate;font-family:Sans;-inkscape-font-specification:Sans"/><path style="font-size:medium;font-style:normal;font-variant:normal;font-weight:400;font-stretch:normal;text-indent:0;text-align:start;text-decoration:none;line-height:normal;letter-spacing:normal;word-spacing:normal;text-transform:none;direction:ltr;block-progression:tb;writing-mode:lr-tb;text-anchor:start;baseline-shift:baseline;color:#000;fill:#f7bd13;fill-opacity:1;stroke:none;stroke-width:3.83350015;marker:none;visibility:visible;display:inline;overflow:visible;enable-background:accumulate;font-family:Sans;-inkscape-font-specification:Sans" id="path3875" d="m 67.320494,43.198686 c 0,-1.385791 -1.136843,-2.522633 -2.522633,-2.522633 -1.385789,0 -2.510749,1.136847 -2.514415,2.522633 -0.0038,1.441318 -0.0038,2.161319 -0.0038,3.601321 1.3e-5,1.440001 1.079988,2.520003 2.520003,2.520003 1.439989,0 2.51999,-1.080002 2.51999,-2.520003 0,-1.440002 8.68e-4,-3.601321 8.68e-4,-3.601321 z"/><path id="path3877" d="m 60.120486,43.198686 c 0,-1.385791 -1.136843,-2.522633 -2.522633,-2.522633 -1.385789,0 -2.510749,1.136847 -2.514415,2.522633 -0.0038,1.441318 -0.0038,2.161319 -0.0038,3.601321 1.3e-5,1.440001 1.079988,2.520003 2.520003,2.520003 1.439989,0 2.51999,-1.080002 2.51999,-2.520003 0,-1.440002 8.68e-4,-3.601321 8.68e-4,-3.601321 z" style="font-size:medium;font-style:normal;font-variant:normal;font-weight:400;font-stretch:normal;text-indent:0;text-align:start;text-decoration:none;line-height:normal;letter-spacing:normal;word-spacing:normal;text-transform:none;direction:ltr;block-progression:tb;writing-mode:lr-tb;text-anchor:start;baseline-shift:baseline;color:#000;fill:#f7bd13;fill-opacity:1;stroke:none;stroke-width:3.83350015;marker:none;visibility:visible;display:inline;overflow:visible;enable-background:accumulate;font-family:Sans;-inkscape-font-specification:Sans"/><path style="font-size:medium;font-style:normal;font-variant:normal;font-weight:400;font-stretch:normal;text-indent:0;text-align:start;text-decoration:none;line-height:normal;letter-spacing:normal;word-spacing:normal;text-transform:none;direction:ltr;block-progression:tb;writing-mode:lr-tb;text-anchor:start;baseline-shift:baseline;color:#000;fill:#f7bd13;fill-opacity:1;stroke:none;stroke-width:3.83350015;marker:none;visibility:visible;display:inline;overflow:visible;enable-background:accumulate;font-family:Sans;-inkscape-font-specification:Sans" id="path3879" d="m 52.920477,43.198686 c 0,-1.385791 -1.136843,-2.522633 -2.522633,-2.522633 -1.385789,0 -2.510749,1.136847 -2.514415,2.522633 -0.0038,1.441318 -0.0038,2.161319 -0.0038,3.601321 1.3e-5,1.440001 1.079988,2.520003 2.520003,2.520003 1.439989,0 2.51999,-1.080002 2.51999,-2.520003 0,-1.440002 8.68e-4,-3.601321 8.68e-4,-3.601321 z"/><path id="path3881" d="m 45.720469,43.198686 c 0,-1.385791 -1.136843,-2.522633 -2.522633,-2.522633 -1.385789,0 -2.510749,1.136847 -2.514415,2.522633 -0.0038,1.441318 -0.0038,2.161319 -0.0038,3.601321 1.3e-5,1.440001 1.079988,2.520003 2.520003,2.520003 1.439989,0 2.51999,-1.080002 2.51999,-2.520003 0,-1.440002 8.68e-4,-3.601321 8.68e-4,-3.601321 z" style="font-size:medium;font-style:normal;font-variant:normal;font-weight:400;font-stretch:normal;text-indent:0;text-align:start;text-decoration:none;line-height:normal;letter-spacing:normal;word-spacing:normal;text-transform:none;direction:ltr;block-progression:tb;writing-mode:lr-tb;text-anchor:start;baseline-shift:baseline;color:#000;fill:#f7bd13;fill-opacity:1;stroke:none;stroke-width:3.83350015;marker:none;visibility:visible;display:inline;overflow:visible;enable-background:accumulate;font-family:Sans;-inkscape-font-specification:Sans"/><path style="font-size:medium;font-style:normal;font-variant:normal;font-weight:400;font-stretch:normal;text-indent:0;text-align:start;text-decoration:none;line-height:normal;letter-spacing:normal;word-spacing:normal;text-transform:none;direction:ltr;block-progression:tb;writing-mode:lr-tb;text-anchor:start;baseline-shift:baseline;color:#000;fill:#f7bd13;fill-opacity:1;stroke:none;stroke-width:3.83350015;marker:none;visibility:visible;display:inline;overflow:visible;enable-background:accumulate;font-family:Sans;-inkscape-font-specification:Sans" id="path3883" d="m 38.52046,43.198686 c 0,-1.385791 -1.136843,-2.522633 -2.522633,-2.522633 -1.385789,0 -2.510749,1.136847 -2.514415,2.522633 -0.0038,1.441318 -0.0038,2.161319 -0.0038,3.601321 1.3e-5,1.440001 1.079988,2.520003 2.520003,2.520003 1.439989,0 2.51999,-1.080002 2.51999,-2.520003 0,-1.440002 8.68e-4,-3.601321 8.68e-4,-3.601321 z"/><path id="path3909" d="m 84.979952,12.600761 c 8.78e-4,0.863202 0.576878,1.43441 1.441797,1.436809 0.863083,0.0024 2.734647,0.0024 3.598648,0.0024 0.864001,-6e-6 1.440002,-0.576008 1.440001,-1.440002 0,-0.864008 -0.576,-1.439997 -1.440001,-1.440004 -0.864001,-7e-6 -2.735565,7e-6 -3.599566,1.4e-5 -0.864001,7e-6 -1.441758,0.576001 -1.440879,1.440783 z" style="font-size:medium;font-style:normal;font-variant:normal;font-weight:400;font-stretch:normal;text-indent:0;text-align:start;text-decoration:none;line-height:normal;letter-spacing:normal;word-spacing:normal;text-transform:none;direction:ltr;block-progression:tb;writing-mode:lr-tb;text-anchor:start;baseline-shift:baseline;color:#000;fill:#f7bd13;fill-opacity:1;stroke:none;stroke-width:2.70599985;marker:none;visibility:visible;display:inline;overflow:visible;enable-background:accumulate;font-family:Sans;-inkscape-font-specification:Sans"/><circle id="circle3845" cx="180.338" cy="235.213" r="7.667" d="m 188.005,235.213 c 0,4.23436 -3.43264,7.667 -7.667,7.667 -4.23437,0 -7.667,-3.43264 -7.667,-7.667 0,-4.23437 3.43263,-7.667 7.667,-7.667 4.23436,0 7.667,3.43263 7.667,7.667 z" transform="matrix(0,-0.18781815,0.18781815,0,-8.1772272,77.070732)" style="fill:#000;stroke:none"/><circle style="fill:#000;stroke:none" id="circle3847" cx="180.338" cy="235.213" r="7.667" d="m 188.005,235.213 c 0,4.23436 -3.43264,7.667 -7.667,7.667 -4.23437,0 -7.667,-3.43264 -7.667,-7.667 0,-4.23437 3.43263,-7.667 7.667,-7.667 4.23436,0 7.667,3.43263 7.667,7.667 z" transform="matrix(0,-0.18781815,0.18781815,0,-0.97721861,77.070732)"/><circle id="circle3849" cx="180.338" cy="235.213" r="7.667" d="m 188.005,235.213 c 0,4.23436 -3.43264,7.667 -7.667,7.667 -4.23437,0 -7.667,-3.43264 -7.667,-7.667 0,-4.23437 3.43263,-7.667 7.667,-7.667 4.23436,0 7.667,3.43263 7.667,7.667 z" transform="matrix(0,-0.18781815,0.18781815,0,6.22279,77.070732)" style="fill:#000;stroke:none"/><circle style="fill:#000;stroke:none" id="circle3853" cx="180.338" cy="235.213" r="7.667" d="m 188.005,235.213 c 0,4.23436 -3.43264,7.667 -7.667,7.667 -4.23437,0 -7.667,-3.43264 -7.667,-7.667 0,-4.23437 3.43263,-7.667 7.667,-7.667 4.23436,0 7.667,3.43263 7.667,7.667 z" transform="matrix(0,-0.18781815,0.18781815,0,13.422799,77.070732)"/><circle id="circle3855" cx="180.338" cy="235.213" r="7.667" d="m 188.005,235.213 c 0,4.23436 -3.43264,7.667 -7.667,7.667 -4.23437,0 -7.667,-3.43264 -7.667,-7.667 0,-4.23437 3.43263,-7.667 7.667,-7.667 4.23436,0 7.667,3.43263 7.667,7.667 z" transform="matrix(0,-0.18781815,0.18781815,0,20.622807,77.070732)" style="fill:#000;stroke:none"/><circle style="fill:#000;stroke:none" id="circle3857" cx="180.338" cy="235.213" r="7.667" d="m 188.005,235.213 c 0,4.23436 -3.43264,7.667 -7.667,7.667 -4.23437,0 -7.667,-3.43264 -7.667,-7.667 0,-4.23437 3.43263,-7.667 7.667,-7.667 4.23436,0 7.667,3.43263 7.667,7.667 z" transform="matrix(0,-0.18781815,0.18781815,0,27.822816,77.070732)"/><circle id="circle3859" cx="180.338" cy="235.213" r="7.667" d="m 188.005,235.213 c 0,4.23436 -3.43264,7.667 -7.667,7.667 -4.23437,0 -7.667,-3.43264 -7.667,-7.667 0,-4.23437 3.43263,-7.667 7.667,-7.667 4.23436,0 7.667,3.43263 7.667,7.667 z" transform="matrix(0,-0.18781815,0.18781815,0,35.022824,77.070732)" style="fill:#000;stroke:none"/><circle style="fill:#000;stroke:none" id="circle3861" cx="180.338" cy="235.213" r="7.667" d="m 188.005,235.213 c 0,4.23436 -3.43264,7.667 -7.667,7.667 -4.23437,0 -7.667,-3.43264 -7.667,-7.667 0,-4.23437 3.43263,-7.667 7.667,-7.667 4.23436,0 7.667,3.43263 7.667,7.667 z" transform="matrix(0,-0.18781815,0.18781815,0,42.222833,77.070732)"/><circle id="circle3863" cx="180.338" cy="235.213" r="7.667" d="m 188.005,235.213 c 0,4.23436 -3.43264,7.667 -7.667,7.667 -4.23437,0 -7.667,-3.43264 -7.667,-7.667 0,-4.23437 3.43263,-7.667 7.667,-7.667 4.23436,0 7.667,3.43263 7.667,7.667 z" transform="matrix(0,-0.18781815,0.18781815,0,42.222833,41.070689)" style="fill:#000;stroke:none"/><circle style="fill:#000;stroke:none" id="circle3865" cx="180.338" cy="235.213" r="7.667" d="m 188.005,235.213 c 0,4.23436 -3.43264,7.667 -7.667,7.667 -4.23437,0 -7.667,-3.43264 -7.667,-7.667 0,-4.23437 3.43263,-7.667 7.667,-7.667 4.23436,0 7.667,3.43263 7.667,7.667 z" transform="matrix(0,-0.18781815,0.18781815,0,35.022824,41.070689)"/><circle id="circle3867" cx="180.338" cy="235.213" r="7.667" d="m 188.005,235.213 c 0,4.23436 -3.43264,7.667 -7.667,7.667 -4.23437,0 -7.667,-3.43264 -7.667,-7.667 0,-4.23437 3.43263,-7.667 7.667,-7.667 4.23436,0 7.667,3.43263 7.667,7.667 z" transform="matrix(0,-0.18781815,0.18781815,0,27.822816,41.070689)" style="fill:#000;stroke:none"/><circle style="fill:#000;stroke:none" id="circle3869" cx="180.338" cy="235.213" r="7.667" d="m 188.005,235.213 c 0,4.23436 -3.43264,7.667 -7.667,7.667 -4.23437,0 -7.667,-3.43264 -7.667,-7.667 0,-4.23437 3.43263,-7.667 7.667,-7.667 4.23436,0 7.667,3.43263 7.667,7.667 z" transform="matrix(0,-0.18781815,0.18781815,0,20.622807,41.070689)"/><circle id="circle3871" cx="180.338" cy="235.213" r="7.667" d="m 188.005,235.213 c 0,4.23436 -3.43264,7.667 -7.667,7.667 -4.23437,0 -7.667,-3.43264 -7.667,-7.667 0,-4.23437 3.43263,-7.667 7.667,-7.667 4.23436,0 7.667,3.43263 7.667,7.667 z" transform="matrix(0,-0.18781815,0.18781815,0,13.422799,41.070689)" style="fill:#000;stroke:none"/><circle style="fill:#000;stroke:none" id="circle3873" cx="180.338" cy="235.213" r="7.667" d="m 188.005,235.213 c 0,4.23436 -3.43264,7.667 -7.667,7.667 -4.23437,0 -7.667,-3.43264 -7.667,-7.667 0,-4.23437 3.43263,-7.667 7.667,-7.667 4.23436,0 7.667,3.43263 7.667,7.667 z" transform="matrix(0,-0.18781815,0.18781815,0,6.22279,41.070689)"/><circle id="circle3875" cx="180.338" cy="235.213" r="7.667" d="m 188.005,235.213 c 0,4.23436 -3.43264,7.667 -7.667,7.667 -4.23437,0 -7.667,-3.43264 -7.667,-7.667 0,-4.23437 3.43263,-7.667 7.667,-7.667 4.23436,0 7.667,3.43263 7.667,7.667 z" transform="matrix(0,-0.18781815,0.18781815,0,-0.97721861,41.070689)" style="fill:#000;stroke:none"/><circle style="fill:#000;stroke:none" id="circle3877" cx="180.338" cy="235.213" r="7.667" d="m 188.005,235.213 c 0,4.23436 -3.43264,7.667 -7.667,7.667 -4.23437,0 -7.667,-3.43264 -7.667,-7.667 0,-4.23437 3.43263,-7.667 7.667,-7.667 4.23436,0 7.667,3.43263 7.667,7.667 z" transform="matrix(0,-0.18781815,0.18781815,0,-8.1772272,41.070689)"/><circle id="circle3879" cx="180.338" cy="235.213" r="7.667" d="m 188.005,235.213 c 0,4.23436 -3.43264,7.667 -7.667,7.667 -4.23437,0 -7.667,-3.43264 -7.667,-7.667 0,-4.23437 3.43263,-7.667 7.667,-7.667 4.23436,0 7.667,3.43263 7.667,7.667 z" transform="matrix(0,-0.18781815,0.18781815,0,-15.377236,41.070689)" style="fill:#000;stroke:none"/><circle style="fill:#000;stroke:none" id="circle3881" cx="180.338" cy="235.213" r="7.667" d="m 188.005,235.213 c 0,4.23436 -3.43264,7.667 -7.667,7.667 -4.23437,0 -7.667,-3.43264 -7.667,-7.667 0,-4.23437 3.43263,-7.667 7.667,-7.667 4.23436,0 7.667,3.43263 7.667,7.667 z" transform="matrix(0,-0.12020362,0.12020362,0,58.126649,34.277226)"/><circle id="circle3883" cx="180.338" cy="235.213" r="7.667" d="m 188.005,235.213 c 0,4.23436 -3.43264,7.667 -7.667,7.667 -4.23437,0 -7.667,-3.43264 -7.667,-7.667 0,-4.23437 3.43263,-7.667 7.667,-7.667 4.23436,0 7.667,3.43263 7.667,7.667 z" transform="matrix(0,-0.12020362,0.12020362,0,58.126649,37.877231)" style="fill:#000;stroke:none"/><circle style="fill:#000;stroke:none" id="circle3885" cx="180.338" cy="235.213" r="7.667" d="m 188.005,235.213 c 0,4.23436 -3.43264,7.667 -7.667,7.667 -4.23437,0 -7.667,-3.43264 -7.667,-7.667 0,-4.23437 3.43263,-7.667 7.667,-7.667 4.23436,0 7.667,3.43263 7.667,7.667 z" transform="matrix(0,-0.12020362,0.12020362,0,58.126649,41.477235)"/><circle id="circle3887" cx="180.338" cy="235.213" r="7.667" d="m 188.005,235.213 c 0,4.23436 -3.43264,7.667 -7.667,7.667 -4.23437,0 -7.667,-3.43264 -7.667,-7.667 0,-4.23437 3.43263,-7.667 7.667,-7.667 4.23436,0 7.667,3.43263 7.667,7.667 z" transform="matrix(0,-0.12020362,0.12020362,0,58.126649,45.077239)" style="fill:#000;stroke:none"/><circle style="fill:#000;stroke:none" id="circle3889" cx="180.338" cy="235.213" r="7.667" d="m 188.005,235.213 c 0,4.23436 -3.43264,7.667 -7.667,7.667 -4.23437,0 -7.667,-3.43264 -7.667,-7.667 0,-4.23437 3.43263,-7.667 7.667,-7.667 4.23436,0 7.667,3.43263 7.667,7.667 z" transform="matrix(0,-0.12020362,0.12020362,0,58.126649,48.677243)"/><circle id="circle3891" cx="180.338" cy="235.213" r="7.667" d="m 188.005,235.213 c 0,4.23436 -3.43264,7.667 -7.667,7.667 -4.23437,0 -7.667,-3.43264 -7.667,-7.667 0,-4.23437 3.43263,-7.667 7.667,-7.667 4.23436,0 7.667,3.43263 7.667,7.667 z" transform="matrix(0,-0.12020362,0.12020362,0,58.126649,52.277248)" style="fill:#000;stroke:none"/><circle style="fill:#000;stroke:none" id="circle3893" cx="180.338" cy="235.213" r="7.667" d="m 188.005,235.213 c 0,4.23436 -3.43264,7.667 -7.667,7.667 -4.23437,0 -7.667,-3.43264 -7.667,-7.667 0,-4.23437 3.43263,-7.667 7.667,-7.667 4.23436,0 7.667,3.43263 7.667,7.667 z" transform="matrix(0,-0.12020362,0.12020362,0,58.126649,55.877252)"/><circle id="circle3895" cx="180.338" cy="235.213" r="7.667" d="m 188.005,235.213 c 0,4.23436 -3.43264,7.667 -7.667,7.667 -4.23437,0 -7.667,-3.43264 -7.667,-7.667 0,-4.23437 3.43263,-7.667 7.667,-7.667 4.23436,0 7.667,3.43263 7.667,7.667 z" transform="matrix(0,-0.12020362,0.12020362,0,58.126649,59.477256)" style="fill:#000;stroke:none"/></g></g></svg>